<svg width="51" height="49" viewBox="0 0 51 49" fill="none" xmlns="http://www.w3.org/2000/svg">
<path d="M11.0597 4.71884L35.1426 14.9254L25.5 19.0109L1.5555 8.86198C2.09464 8.31797 2.754 7.87843 3.50443 7.59382L11.0597 4.71884ZM15.9338 2.86703L21.5803 0.719808C24.1046 -0.239936 26.899 -0.239936 29.4233 0.719808L47.4992 7.59382C48.246 7.88204 48.9053 8.31436 49.4445 8.86198L39.769 12.9619L15.9338 2.86703ZM50.9781 12.1333L27.3214 22.1597V49C28.0395 48.8802 28.7437 48.6895 29.4233 48.4308L47.4992 41.5532C48.5297 41.1607 49.4158 40.4687 50.0407 39.5683C50.6657 38.6679 51.0001 37.6014 51 36.5093V12.6376C51.0006 12.4692 50.9921 12.3008 50.9745 12.1333H50.9781ZM23.6786 49V22.1597L0.0254999 12.1333C0.00908334 12.3009 0.000574235 12.4692 0 12.6376V36.5093C0.000146233 37.6019 0.335116 38.6687 0.960734 39.5691C1.58635 40.4695 2.47324 41.1613 3.50443 41.5532L21.5766 48.4308C22.2615 48.6902 22.9646 48.8811 23.6786 49Z" fill="#FFAB21"/>
</svg>
