<svg width="13" height="13" viewBox="0 0 13 13" fill="none" xmlns="http://www.w3.org/2000/svg">
<path d="M3.25 0.40625C3.25 0.298506 3.2072 0.195175 3.13101 0.118988C3.05483 0.0428012 2.95149 0 2.84375 0C2.73601 0 2.63267 0.0428012 2.55649 0.118988C2.4803 0.195175 2.4375 0.298506 2.4375 0.40625V0.8125H1.625C1.19402 0.8125 0.780698 0.983705 0.475951 1.28845C0.171205 1.5932 0 2.00652 0 2.4375L0 3.25H13V2.4375C13 2.00652 12.8288 1.5932 12.524 1.28845C12.2193 0.983705 11.806 0.8125 11.375 0.8125H10.5625V0.40625C10.5625 0.298506 10.5197 0.195175 10.4435 0.118988C10.3673 0.0428012 10.264 0 10.1562 0C10.0485 0 9.94517 0.0428012 9.86899 0.118988C9.7928 0.195175 9.75 0.298506 9.75 0.40625V0.8125H3.25V0.40625ZM13 11.375V4.0625H0V11.375C0 11.806 0.171205 12.2193 0.475951 12.524C0.780698 12.8288 1.19402 13 1.625 13H11.375C11.806 13 12.2193 12.8288 12.524 12.524C12.8288 12.2193 13 11.806 13 11.375ZM10.1562 5.6875H10.9688C11.0765 5.6875 11.1798 5.7303 11.256 5.80649C11.3322 5.88267 11.375 5.98601 11.375 6.09375V6.90625C11.375 7.01399 11.3322 7.11733 11.256 7.19351C11.1798 7.2697 11.0765 7.3125 10.9688 7.3125H10.1562C10.0485 7.3125 9.94517 7.2697 9.86899 7.19351C9.7928 7.11733 9.75 7.01399 9.75 6.90625V6.09375C9.75 5.98601 9.7928 5.88267 9.86899 5.80649C9.94517 5.7303 10.0485 5.6875 10.1562 5.6875Z" fill="#254083"/>
</svg>
