<svg width="72" height="50" viewBox="0 0 72 50" fill="none" xmlns="http://www.w3.org/2000/svg">
<path d="M60.7142 7.14285C60.7142 3.21428 57.4999 0 53.5713 0H46.4285C44.4642 0 42.8571 1.60714 42.8571 3.57142C42.8571 5.53571 44.4642 7.14285 46.4285 7.14285H53.5713V16.6071L41.1428 32.1428H28.5714V17.8571C28.5714 15.8928 26.9642 14.2857 25 14.2857H14.2857C6.39285 14.2857 0 20.6785 0 28.5714V35.7142C0 37.6785 1.60714 39.2857 3.57142 39.2857H7.14285C7.14285 45.2142 11.9286 49.9999 17.8571 49.9999C23.7857 49.9999 28.5714 45.2142 28.5714 39.2857H41.1428C43.3214 39.2857 45.3571 38.2857 46.7142 36.6071L59.1428 21.0714C60.1785 19.7857 60.7142 18.2143 60.7142 16.6071V7.14285ZM17.8571 42.8571C15.8928 42.8571 14.2857 41.2499 14.2857 39.2857H21.4285C21.4285 41.2499 19.8214 42.8571 17.8571 42.8571Z" fill="#FFAB21"/>
<path d="M14.2863 3.57153H25.0005C26.9648 3.57153 28.572 5.17867 28.572 7.14296C28.572 9.10724 26.9648 10.7144 25.0005 10.7144H14.2863C12.322 10.7144 10.7148 9.10724 10.7148 7.14296C10.7148 5.17867 12.322 3.57153 14.2863 3.57153ZM60.7148 28.5715C54.7862 28.5715 50.0005 33.3572 50.0005 39.2858C50.0005 45.2143 54.7862 50 60.7148 50C66.6433 50 71.429 45.2143 71.429 39.2858C71.429 33.3572 66.6433 28.5715 60.7148 28.5715ZM60.7148 42.8572C58.7505 42.8572 57.1433 41.25 57.1433 39.2858C57.1433 37.3215 58.7505 35.7143 60.7148 35.7143C62.6791 35.7143 64.2862 37.3215 64.2862 39.2858C64.2862 41.25 62.6791 42.8572 60.7148 42.8572Z" fill="#FFAB21"/>
</svg>
