<svg width="116" height="141" viewBox="0 0 116 141" fill="none" xmlns="http://www.w3.org/2000/svg">
<path d="M92.0215 96.3814L81.9915 94.2992L94.6878 33.2176C95.1601 30.0149 94.4565 26.7495 92.7072 24.0255C76.7226 1.89593 50.7207 10.8849 46.734 30.0054L35.3074 84.5993L25.2773 82.5044L38.0879 21.0292C38.7479 17.8489 40.1079 14.8555 42.069 12.2663C44.0301 9.67717 46.5431 7.55718 49.4256 6.06031C81.7249 -10.5845 108.831 15.2905 103.309 41.8129L92.0215 96.3814Z" fill="#E0E0E0"/>
<path d="M92.0195 96.3815C92.0195 96.3815 92.0831 96.0006 92.2354 95.2896C92.3878 94.5786 92.5909 93.4995 92.8702 92.1156L95.4095 79.9652C96.5014 74.6963 97.8217 68.2593 99.358 60.7812L101.897 48.8214C102.684 44.5808 103.992 40.1371 104.043 35.3379C104.119 30.3138 103.051 25.3382 100.92 20.788C100.64 20.204 100.374 19.5946 100.082 19.0106L99.0659 17.2966C98.3743 16.1482 97.6155 15.0417 96.7933 13.9828C96.387 13.4242 95.9046 12.9417 95.4602 12.4212C95.0159 11.9007 94.5842 11.3674 94.0637 10.9104C93.0769 9.92657 92.0249 9.01036 90.915 8.16796C88.6626 6.40528 86.1971 4.93361 83.5766 3.78776L81.5324 3.02599L80.3771 2.6451L79.3106 2.36578L77.1649 1.80715C76.4285 1.64209 75.6921 1.56592 74.9558 1.43895C68.8315 0.527075 62.5744 1.3268 56.8763 3.74967C52.3527 5.67176 48.3042 8.55981 45.0144 12.2115C41.7246 15.8631 39.2732 20.19 37.8319 24.8889C36.9051 28.1265 36.3084 31.5164 35.5847 34.8936C32.7661 48.4405 29.8334 62.4698 26.8497 76.7912C26.4435 78.7083 26.0499 80.6001 25.6563 82.5172L25.4658 82.2252L35.4959 84.3201L35.2165 84.5105C37.4765 73.6552 39.6983 63.0285 41.844 52.7699C42.919 47.6152 43.9811 42.5367 45.0307 37.5344L46.5797 30.0944C47.1235 27.6369 48.0127 25.2688 49.2205 23.0607C51.6677 18.7991 55.3514 15.3812 59.7838 13.2592C60.3297 13.0179 60.8503 12.7259 61.4216 12.5355L63.0975 11.9514C64.2207 11.6137 65.3662 11.3549 66.5255 11.177C67.6771 11.002 68.8395 10.9086 70.0043 10.8977C70.5756 10.8977 71.1596 10.8977 71.7309 10.9738H72.5816L73.4323 11.1135C75.6668 11.418 77.8468 12.0378 79.9073 12.9545C81.8983 13.8713 83.763 15.0405 85.4556 16.4332C88.6922 19.1656 91.1566 22.6981 92.6036 26.6791C94.0013 30.4048 94.4081 34.4295 93.7843 38.3596L93.5558 39.7689C93.4669 40.226 93.3653 40.6831 93.2764 41.1401L92.7052 43.8571C92.3243 45.6473 91.9561 47.3994 91.6006 49.1261C90.1532 56.0074 88.8201 62.3429 87.6267 68.0435C85.2144 79.4701 83.3353 88.3575 82.091 94.312L82.0276 94.2231L89.6453 95.8355L91.499 96.2418L92.1084 96.3815L91.5117 96.2672L89.6707 95.9117L82.053 94.3628V94.2866L87.4616 68.0054C88.6424 62.2921 90.0008 55.9566 91.3847 49.0626C91.7402 47.3486 92.1085 45.5838 92.4766 43.7936C92.6544 42.9049 92.8448 41.9908 93.0352 41.0893C93.1368 40.6323 93.2257 40.1752 93.3273 39.7054C93.4288 39.2357 93.4669 38.7786 93.5431 38.3215C94.1513 34.4497 93.7445 30.4863 92.3624 26.8188C90.93 22.9033 88.4961 19.4318 85.3032 16.7506C83.6291 15.3816 81.7857 14.2337 79.8184 13.3353C77.7959 12.444 75.6595 11.8372 73.4703 11.5325L72.6324 11.4055H71.7817C71.2231 11.4055 70.6645 11.3293 70.0932 11.4055C67.7955 11.4314 65.5129 11.7819 63.3133 12.4466L61.6628 13.0306C61.1162 13.2362 60.582 13.4736 60.0631 13.7416C55.7087 15.8235 52.0942 19.1856 49.703 23.3781C48.528 25.5414 47.6727 27.8635 47.1637 30.2721C46.6559 32.7352 46.1395 35.2152 45.6148 37.7121C44.5737 42.7145 43.5156 47.793 42.4407 52.9476L35.8259 84.6882V84.9295H35.5847L25.5547 82.8346H25.3262V82.5934C25.7198 80.7016 26.1133 78.7845 26.5196 76.8674C29.5159 62.5079 32.436 48.4785 35.2673 34.9697C35.991 31.5798 36.5369 28.2153 37.5272 24.9143C38.5585 21.6876 40.0326 18.6197 41.9075 15.7984C45.6223 10.3424 50.8332 6.07487 56.9144 3.50844C62.6864 1.06155 69.0222 0.257477 75.2224 1.18503C75.9715 1.31199 76.7206 1.40086 77.457 1.55322L79.9962 2.21342L81.3547 2.6451L83.3861 3.40687L84.3256 3.80046C86.8096 4.92618 89.1497 6.34558 91.2958 8.0283C92.4088 8.8905 93.4687 9.81902 94.4699 10.8088C94.8705 11.2447 95.2518 11.6979 95.6126 12.1673C96.057 12.7005 96.5521 13.183 96.9457 13.7416C97.7818 14.8164 98.5534 15.9399 99.2564 17.1061L100.272 18.8328C100.577 19.4295 100.831 20.1024 101.123 20.6357C103.264 25.2407 104.328 30.2731 104.233 35.3506C104.233 40.2006 102.849 44.657 102.05 48.9102C101.25 53.1635 100.31 57.1628 99.5103 60.9082C97.936 68.3863 96.5648 74.874 95.4602 80.0922C94.3557 85.3104 93.4796 89.424 92.921 92.1917L92.248 95.3277C92.1084 96.0387 92.0195 96.3815 92.0195 96.3815Z" fill="#263238"/>
<path d="M20.9492 44.476L110.552 63.146C111.785 63.4029 112.865 64.139 113.555 65.1924C114.245 66.2458 114.489 67.5303 114.232 68.7631L100.076 136.702C99.8424 137.823 99.1733 138.805 98.2156 139.432C97.258 140.059 96.0903 140.281 94.9695 140.047L4.9441 121.289L20.9492 44.476Z" fill="#455A64"/>
<g opacity="0.3">
<path opacity="0.3" d="M20.9941 44.5482L110.125 63.1199C111.483 63.4028 112.673 64.2138 113.433 65.3742C114.193 66.5347 114.462 67.9496 114.179 69.3077L100.219 136.302C99.9598 137.548 99.2157 138.64 98.151 139.337C97.0863 140.035 95.7882 140.281 94.5421 140.021L4.98902 121.361L20.9941 44.5482Z" fill="black"/>
</g>
<path d="M21.7114 44.6379L98.9968 60.7414C100.335 61.0203 101.508 61.8194 102.257 62.963C103.006 64.1065 103.271 65.5008 102.992 66.8392L89.3252 132.429C88.9817 134.077 87.9976 135.521 86.5893 136.444C85.181 137.366 83.4638 137.692 81.8156 137.348L5.92228 121.535C5.23674 121.392 4.58601 121.116 4.00732 120.721C3.42863 120.327 2.9333 119.823 2.54956 119.237C2.16581 118.651 1.90117 117.995 1.7708 117.307C1.64042 116.619 1.64684 115.912 1.78969 115.227L15.6634 48.6431C15.9404 47.3133 16.7311 46.1466 17.8637 45.3966C18.9962 44.6466 20.379 44.374 21.7114 44.6379Z" fill="#455A64"/>
<g opacity="0.3">
<path opacity="0.3" d="M65.9179 86.8972C66.2175 85.4615 66.2258 83.9803 65.9423 82.5414C65.6589 81.1024 65.0894 79.7351 64.2677 78.5203C63.446 77.3055 62.3888 76.268 61.1588 75.4694C59.9287 74.6707 58.5508 74.1271 57.1067 73.8709C54.3206 73.4117 51.4642 74.032 49.1194 75.6054C46.7746 77.1788 45.1179 79.587 44.4867 82.3393C43.9863 84.68 44.2681 87.1203 45.2888 89.2855C46.3094 91.4506 48.0125 93.2209 50.1365 94.3245L40.043 107.668L58.4652 111.858L55.926 95.5434C58.3075 95.392 60.5738 94.4647 62.3783 92.9033C64.1828 91.3418 65.4261 89.2322 65.9179 86.8972Z" fill="black"/>
</g>
<path d="M89.6312 131.448C89.5042 131.448 92.2466 118.041 95.7508 101.561C99.255 85.0817 102.213 71.7253 102.34 71.7506C102.467 71.776 99.7247 85.1706 96.2205 101.676C92.7164 118.181 89.7582 131.474 89.6312 131.448Z" fill="#263238"/>
<path d="M83.3868 59.9559C83.3868 60.0828 71.5412 57.8864 56.9913 55.0551C42.4414 52.2238 30.6465 49.8242 30.6719 49.6973C30.6973 49.5703 42.5176 51.7541 57.0802 54.5853C71.6428 57.4166 83.4122 59.7781 83.3868 59.9559Z" fill="white"/>
<path d="M42.9231 88.1289C42.9231 88.1289 42.7708 87.875 42.6184 87.3671C42.4003 86.6527 42.264 85.9158 42.2121 85.1707C42.0114 82.6827 42.5644 80.192 43.7992 78.0227C45.0551 75.867 46.9248 74.1344 49.1696 73.0457C49.8451 72.7224 50.5512 72.4672 51.2773 72.284C51.5401 72.2021 51.8145 72.1635 52.0898 72.1697C52.0898 72.2586 50.9598 72.4871 49.322 73.3505C47.1917 74.4725 45.4245 76.1771 44.2263 78.2655C43.0281 80.3539 42.4485 82.7399 42.555 85.1453C42.6184 86.9989 43.012 88.1035 42.9231 88.1289Z" fill="white"/>
<path d="M46.0991 94.0582C46.0103 94.1597 45.4262 93.7661 44.8295 93.1821C44.2328 92.5981 43.7757 92.0521 43.8646 91.9125C43.9535 91.7728 44.5375 92.2172 45.1342 92.7885C45.7309 93.3599 46.188 94.0582 46.0991 94.0582Z" fill="white"/>
<path d="M73.2033 3.58455C73.2033 3.58455 72.5432 3.58455 71.3497 3.45759C69.6572 3.35178 67.959 3.38149 66.2712 3.54647C60.7154 4.04868 55.4163 6.11828 50.9907 9.51446C46.5651 12.9106 43.1949 17.4938 41.2723 22.7305C40.6831 24.3079 40.2203 25.9297 39.8884 27.5805C39.6599 28.7485 39.5583 29.4087 39.5202 29.4087C39.5011 29.2485 39.5011 29.0865 39.5202 28.9263C39.5202 28.6089 39.5202 28.1391 39.6853 27.5424C39.9561 25.8648 40.3811 24.2157 40.9549 22.6162C42.8218 17.2641 46.213 12.5748 50.7112 9.12559C55.2094 5.6764 60.618 3.61795 66.2712 3.20367C67.9626 3.0674 69.6632 3.0929 71.3497 3.27985C71.9465 3.27985 72.4035 3.4322 72.7209 3.47029C72.8863 3.48515 73.0488 3.52362 73.2033 3.58455Z" fill="white"/>
<path d="M37.4012 37.6105C37.3694 36.648 37.4981 35.6868 37.7821 34.7666C37.9082 33.8165 38.1913 32.894 38.62 32.0369C38.6594 32.9947 38.5349 33.9522 38.2519 34.8681C38.1262 35.824 37.8386 36.7514 37.4012 37.6105Z" fill="white"/>
</svg>
