<svg width="833" height="542" viewBox="0 0 833 542" fill="none" xmlns="http://www.w3.org/2000/svg">
<path d="M487.002 237.515C487.002 237.515 487.002 237.404 487.002 237.219V236.406C487.002 235.667 487.002 234.62 487.002 233.289C487.002 230.554 487.002 226.611 486.903 221.658L487.088 221.843L427.149 221.954C427.284 221.819 426.841 222.262 427.457 221.658V229.691C427.457 232.328 427.457 234.94 427.457 237.49L427.161 237.182L469.876 237.318L482.48 237.404H485.893H486.78C486.886 237.394 486.994 237.394 487.1 237.404H486.829H485.967H482.628L469.962 237.687L427.038 237.823H426.742V237.527C426.742 234.977 426.742 232.365 426.742 229.728V221.671L427.05 221.363L486.989 221.474H487.211V221.671C487.211 226.673 487.137 230.652 487.112 233.412C487.112 234.731 487.112 235.753 487.112 236.492C487.112 236.813 487.112 237.071 487.112 237.269C487.086 237.355 487.049 237.438 487.002 237.515Z" fill="#E0E0E0"/>
<path d="M602.298 71.6566C602.287 71.5625 602.287 71.4674 602.298 71.3733C602.298 71.1638 602.298 70.8928 602.298 70.5601C602.298 69.8085 602.298 68.7736 602.298 67.4307C602.298 64.6956 602.236 60.7653 602.199 55.8002L602.384 55.985L542.445 56.1082C542.58 55.9727 542.137 56.4162 542.74 55.8002V71.6566L542.432 71.3609L585.147 71.4965L597.764 71.5827H601.176H602.063H602.384C602.29 71.5943 602.195 71.5943 602.1 71.5827H601.25H597.899L585.357 71.6689L542.432 71.8045H542.137V55.8248C542.74 55.2211 542.297 55.6523 542.445 55.5168L602.384 55.64H602.569V55.8248C602.569 60.8392 602.482 64.8064 602.458 67.5662C602.458 68.8845 602.458 69.9194 602.458 70.6463C602.458 70.9667 602.458 71.2254 602.458 71.4349C602.411 71.5135 602.358 71.5877 602.298 71.6566Z" fill="#E0E0E0"/>
<path d="M824.586 309.146C824.575 309.052 824.575 308.957 824.586 308.863V308.049C824.586 307.31 824.586 306.263 824.586 304.932C824.586 302.197 824.586 298.255 824.487 293.29L824.672 293.474L764.733 293.598L765.041 293.29V309.146L764.746 308.85L807.461 308.986L820.064 309.072H823.477H824.364H824.685C824.685 309.072 824.598 309.072 824.401 309.072H823.551H820.212L807.67 309.158L764.746 309.294H764.438V293.351L764.746 293.055L824.685 293.166H824.795V293.351C824.795 298.366 824.722 302.333 824.697 305.105C824.697 306.423 824.697 307.446 824.697 308.185V308.961C824.664 309.025 824.627 309.087 824.586 309.146Z" fill="#E0E0E0"/>
<path d="M832.716 293.339C832.699 293.241 832.699 293.141 832.716 293.043C832.716 292.809 832.716 292.538 832.716 292.205C832.716 291.417 832.716 290.357 832.716 289.027C832.716 286.242 832.655 282.312 832.605 277.482L832.827 277.704L796.814 277.79C796.531 278.061 797.184 277.421 797.11 277.482V285.638C797.11 288.3 797.11 290.862 797.11 293.326L796.814 293.043L822.589 293.179L830.092 293.265H832.112H832.839C832.622 293.282 832.404 293.282 832.186 293.265H830.215L822.823 293.351L796.864 293.487H796.457V293.191C796.457 290.727 796.457 288.164 796.457 285.503V277.347C796.383 277.421 797.036 276.768 796.765 277.051L832.778 277.125H833V277.334C833 282.263 832.913 286.193 832.889 289.002C832.889 290.32 832.889 291.367 832.889 292.144C832.854 292.545 832.797 292.944 832.716 293.339Z" fill="#E0E0E0"/>
<path d="M266.123 487.325L252.57 493.152L253.482 412.761C253.901 403.139 249.478 399.036 247.075 396.301C225.256 371.488 192.718 389.488 192.434 414.634L191.621 486.474L178.426 486.327L179.732 411.172C179.83 402.708 186.409 388.022 193.05 382.761C229.765 353.672 267.33 383.722 266.973 415.509L266.123 487.325Z" fill="#F5F5F5"/>
<path d="M266.12 487.325V485.883C266.12 484.934 266.12 483.542 266.12 481.719C266.12 478.023 266.194 472.663 266.243 465.702C266.293 458.741 266.379 450.301 266.465 440.457C266.514 435.529 266.564 430.285 266.613 424.724C266.613 419.155 267.118 413.229 265.972 407.143C264.825 400.769 262.242 394.74 258.42 389.512C257.915 388.835 257.434 388.145 256.904 387.479C256.375 386.814 255.771 386.247 255.204 385.57C254.046 384.285 252.812 383.072 251.508 381.935C250.88 381.332 250.141 380.851 249.451 380.297C248.761 379.742 248.083 379.175 247.307 378.732C245.814 377.737 244.258 376.84 242.65 376.046C239.358 374.39 235.873 373.149 232.276 372.35L229.491 371.894L228.099 371.66L226.682 371.574L223.824 371.389C222.863 371.389 221.902 371.451 220.941 371.487C212.976 371.849 205.266 374.408 198.666 378.88C191.719 383.583 186.274 390.187 182.982 397.903C181.328 401.883 180.241 406.076 179.754 410.359C179.384 414.671 179.483 419.118 179.396 423.566C179.199 441.394 178.99 459.85 178.78 478.762C178.78 481.283 178.752 483.797 178.694 486.302L178.386 485.982L191.581 486.129L191.273 486.437C191.429 472.146 191.59 458.182 191.754 444.548C191.828 437.763 191.906 431.073 191.988 424.478C191.988 421.192 192.025 417.927 192.099 414.683C192.169 411.444 192.709 408.232 193.7 405.147C195.723 399.145 199.532 393.905 204.616 390.128C205.219 389.653 205.848 389.213 206.501 388.81L208.473 387.578C209.81 386.87 211.198 386.26 212.625 385.755C214.035 385.241 215.48 384.829 216.949 384.523C217.676 384.362 218.415 384.301 219.142 384.178L220.239 384.03H221.348C224.242 383.869 227.145 384.114 229.972 384.757C232.727 385.418 235.386 386.433 237.882 387.775C244.983 391.718 250.282 398.257 252.666 406.022C253.363 408.43 253.776 410.91 253.898 413.414C253.898 414.03 253.898 414.646 253.96 415.25C254.021 415.853 253.96 416.482 253.96 417.061C253.96 418.293 253.96 419.451 253.96 420.634C253.96 422.987 253.96 425.303 253.874 427.57C253.75 436.638 253.652 444.967 253.553 452.482C253.344 467.501 253.184 479.255 253.073 487.066L252.987 486.98L262.942 487.14H265.406H266.206H262.978L252.974 487.078H252.888V486.992C252.888 479.181 253.06 467.427 253.196 452.408C253.27 444.893 253.356 436.552 253.442 427.484C253.442 425.217 253.442 422.901 253.516 420.548C253.516 419.316 253.516 418.182 253.516 416.975C253.516 416.383 253.516 415.743 253.516 415.176L253.442 413.365C253.259 408.315 251.76 403.402 249.093 399.11C246.313 394.514 242.375 390.729 237.672 388.132C235.218 386.818 232.605 385.824 229.898 385.176C227.106 384.55 224.241 384.317 221.385 384.486H220.3L219.228 384.646C218.502 384.757 217.775 384.818 217.06 384.978C214.165 385.596 211.368 386.603 208.744 387.972L206.809 389.13C206.17 389.505 205.553 389.916 204.961 390.362C199.964 394.079 196.227 399.239 194.255 405.147C193.285 408.176 192.762 411.33 192.703 414.511C192.703 417.747 192.666 421.012 192.592 424.305C192.518 430.876 192.444 437.566 192.37 444.375C192.222 457.928 192.062 471.936 191.902 486.265V486.573H191.594L178.386 486.425H178.078V486.117C178.078 483.653 178.107 481.14 178.164 478.577C178.386 459.677 178.596 441.221 178.805 423.381C178.891 418.921 178.805 414.523 179.162 410.112C179.665 405.774 180.772 401.527 182.452 397.496C184.17 393.643 186.39 390.035 189.056 386.765C191.756 383.579 194.867 380.766 198.308 378.399C204.995 373.864 212.808 371.271 220.879 370.908C221.853 370.908 222.826 370.798 223.799 370.822L227.114 371.019L228.937 371.229L231.697 371.685L232.929 371.956C236.35 372.756 239.66 373.973 242.785 375.578C244.417 376.379 245.994 377.288 247.504 378.301C248.28 378.757 248.945 379.373 249.66 379.89C250.375 380.408 251.102 380.937 251.755 381.541C253.059 382.699 254.293 383.933 255.451 385.237L257.176 387.171C257.705 387.849 258.186 388.551 258.691 389.241C262.549 394.528 265.148 400.625 266.293 407.069C267.438 413.229 266.859 419.192 266.896 424.761C266.933 430.33 266.749 435.628 266.687 440.556C266.551 450.412 266.428 458.889 266.33 465.825C266.231 472.762 266.157 478.146 266.096 481.768C266.096 483.567 266.096 484.959 266.022 485.895C265.948 486.832 266.12 487.325 266.12 487.325Z" fill="#E0E0E0"/>
<path d="M163.35 439.4L282.85 440.755C284.072 440.769 285.239 441.268 286.093 442.142C286.947 443.016 287.42 444.193 287.406 445.415L286.358 537.776C286.345 538.887 285.892 539.947 285.097 540.724C284.303 541.5 283.233 541.93 282.122 541.917L162.251 540.557L163.399 439.4L163.35 439.4Z" fill="#E0E0E0"/>
<path d="M163.354 439.141L268.447 440.192C269.774 440.205 271.041 440.745 271.97 441.692C272.898 442.64 273.413 443.917 273.399 445.244L272.5 535.183C272.484 536.817 271.819 538.378 270.652 539.521C269.485 540.665 267.912 541.298 266.278 541.282L162.515 540.244C161.143 540.231 159.832 539.672 158.871 538.692C157.911 537.712 157.379 536.39 157.392 535.018L158.302 444.093C158.315 442.766 158.855 441.499 159.802 440.571C160.749 439.642 162.027 439.128 163.354 439.141Z" fill="#EBEBEB"/>
<path d="M230.764 481.817C230.786 479.927 230.427 478.052 229.71 476.303C228.993 474.554 227.932 472.967 226.59 471.637C225.248 470.306 223.651 469.258 221.896 468.556C220.141 467.854 218.263 467.512 216.373 467.55C212.738 467.659 209.282 469.151 206.71 471.723C204.138 474.294 202.646 477.751 202.538 481.386C202.481 484.469 203.439 487.485 205.264 489.969C207.09 492.454 209.682 494.269 212.64 495.136L203.215 514.504L227.548 515.231L220.353 495.185C223.305 494.39 225.918 492.656 227.796 490.244C229.675 487.832 230.716 484.874 230.764 481.817Z" fill="#E0E0E0"/>
<path d="M271.826 532.257C271.654 532.257 271.826 514.652 272.134 492.943C272.442 471.234 272.886 453.616 273.058 453.616C273.231 453.616 273.058 471.222 272.75 492.943C272.442 514.664 271.999 532.27 271.826 532.257Z" fill="#FAFAFA"/>
<path d="M246.151 443.439C246.151 443.612 230.665 443.784 211.555 443.821C192.446 443.858 176.947 443.747 176.947 443.575C176.947 443.402 192.434 443.242 211.555 443.205C230.677 443.168 246.151 443.242 246.151 443.439Z" fill="white"/>
<path d="M201.995 489.099C201.753 488.838 201.558 488.538 201.416 488.212C200.973 487.354 200.618 486.454 200.356 485.526C199.474 482.432 199.556 479.143 200.591 476.097C201.625 473.05 203.563 470.392 206.147 468.474C206.915 467.894 207.74 467.395 208.611 466.984C208.917 466.813 209.251 466.697 209.596 466.639C209.596 466.737 208.253 467.316 206.405 468.819C203.978 470.757 202.157 473.351 201.159 476.292C200.161 479.234 200.028 482.4 200.775 485.415C201.379 487.793 202.093 489.025 201.995 489.099Z" fill="white"/>
<path d="M207.538 495.85C207.451 495.998 206.626 495.641 205.689 495.062C204.753 494.483 204.075 493.891 204.162 493.743C204.248 493.596 205.086 493.953 206.022 494.532C206.958 495.111 207.538 495.702 207.538 495.85Z" fill="white"/>
<path d="M219.267 374.654C218.482 374.804 217.688 374.907 216.889 374.962C214.738 375.25 212.612 375.707 210.532 376.329C203.622 378.335 197.425 382.266 192.666 387.664C187.908 393.062 184.784 399.703 183.661 406.81C183.29 408.95 183.105 411.119 183.107 413.291C183.107 414.818 183.107 415.681 183.107 415.681C183.041 415.482 183.007 415.274 183.008 415.065C183.008 414.658 182.885 414.067 182.873 413.291C182.786 411.099 182.909 408.904 183.242 406.736C184.27 399.509 187.392 392.741 192.222 387.268C197.051 381.794 203.378 377.855 210.421 375.935C212.528 375.316 214.69 374.904 216.877 374.703C217.641 374.617 218.245 374.629 218.651 374.617C218.857 374.609 219.064 374.621 219.267 374.654Z" fill="white"/>
<path d="M182.452 426.585C182.172 425.374 182.097 424.124 182.23 422.889C182.146 421.644 182.275 420.394 182.612 419.192C182.984 421.647 182.93 424.148 182.452 426.585Z" fill="white"/>
<path d="M258.384 83.3979H198.445V99.2544H258.384V83.3979Z" fill="#F5F5F5"/>
<path d="M233.042 115.961C233.042 115.961 233.042 115.862 233.042 115.678V114.864C233.042 114.113 233.042 113.066 233.042 111.735C233.042 109 233.042 105.07 232.944 100.105L233.129 100.289L173.19 100.413C173.325 100.277 172.882 100.708 173.498 100.105V108.137C173.498 110.782 173.498 113.382 173.498 115.936L173.202 115.641L215.917 115.776L228.521 115.862H231.934H232.821C232.927 115.852 233.035 115.852 233.141 115.862H232.87H232.008H228.669L216.126 115.949L173.202 116.084H172.906V115.788C172.906 113.234 172.906 110.634 172.906 107.99V99.9567L173.214 99.6487L233.153 99.7719H233.338V99.9567C233.338 104.959 233.264 108.938 233.24 111.698C233.24 113.016 233.24 114.039 233.24 114.778C233.24 115.099 233.24 115.357 233.24 115.554C233.24 115.752 233.055 115.961 233.042 115.961Z" fill="#E0E0E0"/>
<path d="M815.75 42.0012H755.811V57.8577H815.75V42.0012Z" fill="#F5F5F5"/>
<path d="M790.406 74.5644C790.397 74.4701 790.397 74.3752 790.406 74.281V73.4678C790.406 72.7163 790.406 71.6814 790.406 70.3385C790.406 67.6033 790.406 63.6731 790.308 58.7079L790.493 58.8927L730.553 59.0159C730.689 58.8804 730.245 59.3116 730.862 58.7079V60.7162C730.862 61.3938 730.862 62.0714 730.862 62.7367V74.5644L730.566 74.2687L773.281 74.4042L785.885 74.4905H789.297H790.185H790.505H790.222H789.371H786.033L773.49 74.5767L730.566 74.7122H730.258V58.7326L730.566 58.4246L790.505 58.5478H790.69V58.7326C790.69 63.7347 790.616 67.7142 790.591 70.474C790.591 71.7923 790.591 72.8149 790.591 73.5541C790.591 73.8744 790.591 74.1332 790.591 74.3426C790.591 74.552 790.419 74.5644 790.406 74.5644Z" fill="#E0E0E0"/>
<path d="M473.92 357.233H413.98V373.089H473.92V357.233Z" fill="#F5F5F5"/>
<path d="M448.575 389.796C448.566 389.697 448.566 389.598 448.575 389.5V388.687C448.575 387.948 448.575 386.9 448.575 385.57C448.575 382.835 448.513 378.904 448.476 373.939L448.661 374.124L388.722 374.247C388.857 374.112 388.414 374.543 389.017 373.939V389.771L388.722 389.475L431.437 389.611L444.041 389.697H447.453H448.341H448.661H448.377H447.527H444.189L431.646 389.783L388.648 390.091H388.34V373.964L388.648 373.656L448.587 373.779H448.772V373.964C448.772 378.966 448.698 382.946 448.673 385.705C448.673 387.024 448.673 388.046 448.673 388.785C448.673 389.106 448.673 389.364 448.673 389.562C448.645 389.642 448.612 389.72 448.575 389.796Z" fill="#E0E0E0"/>
<path d="M80.958 58.5599C80.9471 58.4657 80.9471 58.3706 80.958 58.2765C80.958 58.067 80.958 57.796 80.958 57.4633C80.958 56.7118 80.958 55.6769 80.958 54.3339C80.958 51.5988 80.958 47.6686 80.8595 42.7034L81.0443 42.8882L21.0189 43.0237C21.1545 42.8882 20.7109 43.3318 21.3146 42.7157V58.5599L21.0189 58.2642L63.734 58.3997L76.3379 58.4859H79.7506H80.6377H80.958C80.8639 58.4975 80.7688 58.4975 80.6747 58.4859H79.8245H76.4734L63.9435 58.5722L21.0189 58.7077H20.7109V42.7281L21.0189 42.42L80.958 42.5433H81.1428V42.7281C81.1428 47.7425 81.0689 51.7097 81.0443 54.4695C81.0443 55.7878 81.0443 56.8227 81.0443 57.5496C81.0443 57.8699 81.0443 58.1286 81.0443 58.3381C81.0214 58.4142 80.9925 58.4883 80.958 58.5599Z" fill="#E0E0E0"/>
<path d="M678.687 515.797C678.687 515.797 678.687 515.699 678.687 515.514V514.701C678.687 513.949 678.687 512.914 678.687 511.571C678.687 508.836 678.687 504.906 678.588 499.941L678.773 500.126L618.834 500.249L619.142 499.941V507.974C619.142 510.627 619.142 513.226 619.142 515.773L618.847 515.477L661.562 515.612L674.165 515.699H677.578H678.478H678.786C678.786 515.699 678.699 515.699 678.515 515.699H677.652H674.313L661.771 515.785L618.847 515.92H618.551V515.625C618.551 513.07 618.551 510.471 618.551 507.826V499.793L618.859 499.485L678.798 499.608H678.983V499.793C678.983 504.795 678.909 508.774 678.884 511.534C678.884 512.853 678.884 513.875 678.884 514.614C678.884 514.935 678.884 515.193 678.884 515.403C678.884 515.612 678.699 515.81 678.687 515.797Z" fill="#E0E0E0"/>
<path d="M438.374 35.7917C438.374 35.7917 438.374 35.6808 438.374 35.496V34.6828C438.374 33.9436 438.374 32.8964 438.374 31.5658C438.374 28.8306 438.375 24.8881 438.276 19.9352L438.461 20.12L378.522 20.2309L378.83 19.9352V27.9928C378.83 30.6458 378.83 33.2454 378.83 35.7917L378.534 35.496L421.249 35.6315L433.853 35.7054H437.266H438.165C438.267 35.6953 438.371 35.6953 438.473 35.7054H438.202H437.34H434.001L421.459 35.7917L378.534 35.9272H378.238V35.6315C378.238 33.0812 378.238 30.4815 378.238 27.8326V19.9599L378.546 19.6519L438.485 19.7751H438.67V19.9599C438.67 24.962 438.596 28.9415 438.572 31.7013C438.572 33.0196 438.572 34.0422 438.572 34.7814V35.5576C438.518 35.6448 438.451 35.7237 438.374 35.7917Z" fill="#E0E0E0"/>
<path d="M446.557 19.9353C446.548 19.8328 446.548 19.7298 446.557 19.6273C446.557 19.4055 446.557 19.1222 446.557 18.7895C446.557 18.0133 446.557 16.9538 446.557 15.6108C446.557 12.8264 446.483 8.90849 446.434 4.07887L446.656 4.28832L410.643 4.37456L410.939 4.07887V12.2227C410.939 14.8716 410.939 17.4466 410.939 19.9107L410.655 19.615L436.417 19.7505L443.92 19.8368H445.941H446.668C446.451 19.8544 446.232 19.8544 446.015 19.8368H444.044L436.651 19.9107L410.692 20.0462H410.397V19.7628C410.397 17.2987 410.397 14.7238 410.397 12.0749V4.10351C410.323 4.10351 410.976 3.52445 410.705 3.7955L446.717 3.88174H446.939V4.10351C446.939 9.0317 446.84 12.9496 446.816 15.771C446.816 17.0893 446.816 18.1242 446.816 18.9004C446.816 19.6766 446.557 19.9476 446.557 19.9353Z" fill="#E0E0E0"/>
<path d="M60.1362 413.87C60.131 413.776 60.131 413.681 60.1362 413.587C60.1362 413.377 60.1362 413.106 60.1362 412.773C60.1362 412.022 60.1362 410.987 60.1362 409.656C60.1362 406.921 60.1362 402.979 60.0376 398.013L60.2225 398.198L0.28337 398.322L0.591382 398.013V406.059C0.591382 408.704 0.591382 411.303 0.591382 413.858L0.295693 413.562L43.0108 413.697L55.6146 413.784H59.0274H59.9268H60.2348C60.2348 413.784 60.1485 413.784 59.9637 413.784H59.1013H55.7624L43.2202 413.87L0.295693 414.005H0V413.87C0 411.32 0 408.72 0 406.071V398.026C0.616023 397.422 0.172487 397.866 0.308012 397.73L60.2471 397.841H60.4319V398.026C60.4319 403.04 60.358 407.007 60.3333 409.78C60.3333 411.098 60.3333 412.12 60.3333 412.86V413.636C60.1485 413.87 60.1485 413.87 60.1362 413.87Z" fill="#E0E0E0"/>
<path d="M68.3168 398.038C68.3071 397.94 68.3071 397.841 68.3168 397.742C68.3168 397.508 68.3168 397.237 68.3168 396.905C68.3168 396.116 68.3168 395.056 68.3168 393.726C68.3168 390.941 68.2429 387.011 68.1936 382.182L68.4154 382.403L32.4027 382.49C32.1316 382.761 32.7723 382.12 32.6983 382.182V390.338C32.6983 392.999 32.6983 395.562 32.6983 398.026L32.415 397.742L58.1771 397.878L65.6802 397.964H67.7008H68.4277C68.2104 397.982 67.992 397.982 67.7747 397.964H65.8034L58.4112 398.05L32.4519 398.186H32.1562V397.89C32.1562 395.426 32.1562 392.863 32.1562 390.202V382.046L32.4643 381.738L68.3168 381.96H68.5386V382.182C68.5386 387.11 68.44 391.04 68.4154 393.849C68.4154 395.167 68.4154 396.215 68.4154 396.991C68.4154 397.767 68.3168 398.063 68.3168 398.038Z" fill="#E0E0E0"/>
<path d="M248.885 283.507C248.875 283.413 248.875 283.318 248.885 283.224V282.41C248.885 281.659 248.885 280.624 248.885 279.293C248.885 276.546 248.824 272.616 248.787 267.651L248.972 267.835L189.033 267.959C189.168 267.823 188.725 268.267 189.328 267.651V283.482L189.033 283.187L231.748 283.322L244.352 283.408H247.764H248.651H248.972H248.688H247.838H244.487L231.957 283.482L189.033 283.618H188.725V267.478L189.033 267.17L248.972 267.293H249.157V267.478C249.157 272.492 249.083 276.46 249.058 279.232C249.058 280.538 249.058 281.573 249.058 282.3V283.088C249.022 283.236 248.964 283.377 248.885 283.507Z" fill="#E0E0E0"/>
<path d="M257.016 267.651C256.998 267.553 256.998 267.453 257.016 267.355C257.016 267.121 257.016 266.85 257.016 266.505L256.954 263.326C256.954 260.554 256.954 256.624 256.843 251.794L257.065 252.016L221.04 252.102L221.348 251.794V259.95C221.348 262.599 221.348 265.174 221.348 267.638L221.052 267.355L246.815 267.49L254.33 267.564H256.351H257.078C256.856 267.581 256.634 267.581 256.412 267.564H254.453L247.061 267.651L221.102 267.786H220.818V267.49C220.818 265.026 220.818 262.451 220.818 259.802V251.646C220.818 251.708 221.41 251.067 221.126 251.338L257.151 251.425H257.373V251.646C257.373 256.575 257.287 260.505 257.262 263.314C257.262 264.632 257.262 265.679 257.201 266.443C257.139 267.207 257.028 267.663 257.016 267.651Z" fill="#E0E0E0"/>
<path d="M26.9446 473.748L4.80469 503.81L42.0864 531.555C44.5505 527.859 30.5421 506.323 30.5421 506.323L45.5238 487.645L26.9446 473.748Z" fill="#455A64"/>
<path d="M20.2682 496.146C19.8298 495.987 19.3478 495.995 18.9154 496.171C18.483 496.346 18.1309 496.675 17.9273 497.095C17.7542 497.53 17.7534 498.014 17.9251 498.449C18.0968 498.884 18.4281 499.237 18.8514 499.436C19.3159 499.6 19.8245 499.586 20.2794 499.397C20.7342 499.208 21.1033 498.858 21.3155 498.413C21.4516 497.941 21.3992 497.435 21.1694 497C20.9397 496.566 20.5503 496.238 20.0834 496.085" fill="white"/>
<path d="M4.75586 503.884L7.10907 500.656L41.939 528.697C41.939 528.697 43.0479 530.668 41.939 531.691L4.75586 503.884Z" fill="#263238"/>
<path d="M31.3551 506.594C31.2195 506.779 30.2462 506.188 28.891 506.101C27.5357 506.015 26.5131 506.434 26.4269 506.237C26.3406 506.04 27.3756 505.19 28.9772 505.313C30.5789 505.436 31.4536 506.459 31.3551 506.594Z" fill="#263238"/>
<path d="M34.0058 511.128C33.9072 511.337 32.897 511.054 31.7019 511.362C30.5068 511.67 29.7306 512.36 29.5458 512.212C29.361 512.064 30.0263 510.98 31.5171 510.598C33.0078 510.216 34.129 510.955 34.0058 511.128Z" fill="#263238"/>
<path d="M32.7353 517.461C32.5382 517.375 32.9694 516.229 34.1768 515.625C35.3842 515.021 36.53 515.218 36.493 515.428C36.4561 515.637 35.532 515.773 34.5587 516.327C33.5854 516.882 32.9324 517.572 32.7353 517.461Z" fill="#263238"/>
<path d="M34.2404 501.962C34.031 502.072 33.3903 501.198 32.3061 500.508C31.2219 499.818 30.187 499.534 30.1993 499.276C30.2116 499.017 31.4314 498.968 32.7373 499.805C34.0433 500.643 34.4376 501.888 34.2404 501.962Z" fill="#263238"/>
<path d="M117.082 347.906C117.748 351.676 118.807 383.747 119.485 400.663C120.162 417.579 118.474 425.895 116.54 429.69C114.606 433.484 41.6564 487.239 36.0998 500.113L17.6191 485.218C17.6191 485.218 44.7242 436.565 56.2808 427.718C67.8374 418.872 90.0758 410.753 90.0758 410.753L83.7554 318.116L114.051 316.465L117.082 347.906Z" fill="#263238"/>
<path d="M49.2832 503.477L48.9629 540.771L95.4234 541.412C95.2139 536.976 71.2999 527.724 71.2999 527.724L72.5319 503.81L49.2832 503.477Z" fill="#455A64"/>
<path d="M56.9582 525.568C56.5099 525.697 56.1251 525.987 55.8773 526.383C55.6296 526.778 55.5363 527.251 55.6153 527.711C55.7296 528.164 56.0124 528.557 56.4062 528.809C56.8 529.061 57.275 529.153 57.7344 529.067C58.2078 528.926 58.6128 528.616 58.8719 528.195C59.131 527.775 59.226 527.273 59.1389 526.787C58.9738 526.326 58.6359 525.948 58.1967 525.732C57.7576 525.516 57.2515 525.479 56.7857 525.629" fill="white"/>
<path d="M48.9473 540.907V536.903L93.609 539.219C93.609 539.219 95.6542 540.168 95.3954 541.621L48.9473 540.907Z" fill="#263238"/>
<path d="M72.0132 527.551C72.0132 527.785 70.8674 527.871 69.7462 528.586C68.6251 529.301 68.009 530.237 67.7996 530.151C67.5902 530.065 67.9474 528.746 69.3273 527.908C70.7072 527.071 72.1118 527.342 72.0132 527.551Z" fill="#263238"/>
<path d="M76.9435 529.683C76.9435 529.904 75.9949 530.274 75.2187 531.223C74.4425 532.171 74.1961 533.194 73.9866 533.169C73.7772 533.145 73.6293 531.876 74.6273 530.705C75.6253 529.535 76.9435 529.424 76.9435 529.683Z" fill="#263238"/>
<path d="M79.5883 535.51C79.3788 535.51 79.0831 534.414 79.6745 533.182C80.2659 531.95 81.3501 531.469 81.4363 531.654C81.5226 531.839 80.8696 532.504 80.3891 533.527C79.9086 534.549 79.81 535.486 79.5883 535.51Z" fill="#263238"/>
<path d="M71.7167 522.069C71.6181 522.278 70.5832 521.945 69.2526 522.069C67.922 522.192 66.961 522.524 66.7885 522.327C66.616 522.13 67.6386 521.342 69.154 521.28C70.6694 521.218 71.8275 521.896 71.7167 522.069Z" fill="#263238"/>
<path d="M120.434 312.633C120.434 314.814 123.97 370.022 105.92 409.965C105.92 409.965 99.674 422.458 98.5281 427.916C97.3823 433.374 74.0351 523.904 74.0351 523.904L47.0532 522.919C47.0532 522.919 42.7411 477.567 47.0532 451.312C51.3654 425.057 59.3737 428.137 59.3737 411.184C59.3737 394.231 55.3449 359.081 55.3449 359.081C55.3449 359.081 49.4557 349.484 47.4475 330.867C45.8089 315.75 52.9301 299.549 52.9301 299.549L59.9651 287.093L119.485 283.976L120.434 312.633Z" fill="#263238"/>
<path d="M120.432 312.633C120.432 312.633 120.432 311.992 120.432 310.748C120.432 309.504 120.358 307.656 120.309 305.228C120.198 300.362 120.013 293.191 119.791 283.926V283.791H119.643L60.1231 286.822H59.9999L59.926 286.932C57.7452 290.801 55.3427 295.027 52.8787 299.388C51.046 303.809 49.6152 308.387 48.6034 313.064C47.4857 317.989 46.9849 323.034 47.1127 328.083C47.4877 333.355 48.3121 338.586 49.5768 343.718C50.7968 349.106 52.7145 354.312 55.2811 359.204V359.081C56.3037 368.272 57.2524 377.796 58.0532 387.603C58.4475 392.531 58.7925 397.459 59.0389 402.523C59.1621 404.987 59.2607 407.574 59.273 410.125C59.273 411.357 59.273 412.675 59.1991 413.944C59.1114 415.217 58.9551 416.483 58.7309 417.739C58.2265 420.268 57.333 422.704 56.082 424.959C54.8499 427.263 53.6179 429.542 52.3858 431.944C50.1545 436.82 48.5284 441.951 47.5439 447.222C45.4001 457.817 44.9689 468.832 44.8457 479.933C44.8457 494.582 45.5357 508.972 46.7431 522.882V523.177H47.0264L74.0083 524.163H74.267L74.3286 523.904C82.1521 493.584 89.4458 465.247 95.8771 439.768L98.2057 430.343C98.6122 428.778 98.871 427.226 99.3515 425.747C99.832 424.269 100.374 422.803 100.941 421.373C102.099 418.515 103.405 415.743 104.637 413.045L105.598 411.037C105.939 410.381 106.244 409.706 106.51 409.016C107.064 407.648 107.618 406.305 108.173 404.963C112.004 395.026 114.856 384.739 116.686 374.248C119.325 359.302 120.685 344.159 120.752 328.982C120.826 318.362 120.395 312.596 120.395 312.596C120.395 312.596 120.395 312.953 120.395 313.656C120.395 314.358 120.395 315.43 120.469 316.81C120.543 319.582 120.592 323.672 120.469 328.982C120.355 344.146 118.982 359.274 116.366 374.211C114.493 384.668 111.605 394.918 107.742 404.815L106.091 408.844C105.82 409.533 105.512 410.186 105.179 410.852C104.846 411.517 104.526 412.195 104.206 412.872C102.974 415.57 101.668 418.343 100.51 421.213C99.9305 422.655 99.3761 424.121 98.8956 425.624C98.4151 427.127 98.1317 428.716 97.7375 430.244C96.9613 433.349 96.1851 436.478 95.3843 439.669C88.8421 465.123 81.5607 493.46 73.7618 523.781L74.0822 523.547L47.1004 522.549L47.4207 522.845C46.1886 508.96 45.4741 494.582 45.5233 479.957C45.6465 468.869 46.0778 457.904 48.2092 447.382C49.1907 442.16 50.8 437.076 53.0019 432.24C54.1107 429.862 55.466 427.608 56.698 425.267C57.9407 422.95 58.8215 420.457 59.3099 417.874C59.5435 416.591 59.704 415.295 59.7904 413.993C59.7904 412.761 59.9136 411.406 59.8644 410.137C59.8644 407.574 59.7535 405.024 59.6303 402.498C59.3839 397.447 59.0266 392.47 58.62 387.566C57.7986 377.71 56.8664 368.194 55.8232 359.02V358.946C53.2557 354.116 51.3297 348.972 50.0942 343.644C48.8366 338.548 48.0123 333.355 47.6301 328.12C47.4975 323.118 47.9858 318.119 49.0839 313.237C50.0767 308.606 51.4743 304.071 53.2606 299.684L60.2833 287.216L60.0861 287.339L119.606 284.123L119.446 283.988C119.742 293.241 119.964 300.411 120.111 305.278C120.198 307.742 120.259 309.541 120.309 310.797C120.358 312.054 120.432 312.633 120.432 312.633Z" fill="#455A64"/>
<path d="M101.077 199.58C101.077 199.58 85.0603 196.747 86.5511 217.359C87.4874 229.679 91.1097 250.821 93.1179 264.312C93.8078 268.982 95.3356 277.335 101.508 282.238L145.739 312.842L159.698 296.148L120.198 258.534L114.038 221.326L101.077 199.58Z" fill="#455A64"/>
<path d="M102.961 125.288C105.5 127.332 107.508 129.958 108.817 132.944C110.125 135.929 110.694 139.186 110.477 142.438C110.23 145.592 109.355 149.177 111.413 151.58C113.471 153.982 117.413 153.896 119.36 156.335C121.639 159.218 119.729 163.506 120.592 167.091C121.031 168.766 122.052 170.229 123.472 171.22C124.892 172.211 126.618 172.665 128.341 172.5C124.298 175.809 119.421 177.94 114.247 178.66L110.206 173.621C111.709 175.395 111.302 178.217 109.861 180.028C108.295 181.713 106.275 182.911 104.045 183.477C98.7376 185.11 93.1247 185.496 87.6434 184.605C82.1621 183.714 76.9605 181.57 72.4434 178.34" fill="#263238"/>
<path d="M43.7864 153.095C44.5749 150.631 45.9055 148.45 46.4353 145.974C47.5687 140.639 44.9691 134.627 47.5564 129.822C49.4045 126.409 53.3224 124.734 57.0432 123.588C60.764 122.442 64.7312 121.481 67.5033 118.758C69.5238 116.762 70.6819 114.002 72.7025 112.007C75.5855 109.148 79.8484 108.175 83.8895 107.928C88.0623 107.525 92.2685 108.209 96.0991 109.912C98.0012 110.78 99.6725 112.083 100.978 113.716C102.284 115.349 103.187 117.266 103.615 119.313C103.935 121.308 103.688 123.415 104.329 125.35C105.019 127.469 106.682 129.12 107.717 131.103C108.754 133.234 109.054 135.648 108.57 137.967C108.086 140.286 106.846 142.379 105.044 143.917L76.4849 180.804C70.4848 183.071 55.9467 180.336 51.3142 175.876C46.6817 171.416 41.8028 159.194 43.7864 153.095Z" fill="#263238"/>
<path d="M104.292 139.235C103.06 130.857 96.7397 120.964 88.4234 122.491L62.7475 131.116C60.2835 131.584 62.033 135.711 62.2794 138.261L67.8605 196.168C67.8605 196.168 64.3862 198.632 63.1541 198.164C63.084 198.139 63.0079 198.137 62.9365 198.158C62.8652 198.178 62.8021 198.221 62.756 198.279C62.7099 198.338 62.6831 198.409 62.6794 198.483C62.6757 198.557 62.6952 198.631 62.7352 198.693C65.8523 203.19 80.3781 222.743 95.4214 216.743C98.7726 215.4 95.0641 204.841 95.4214 200.936L94.9779 190.944C94.6452 185.843 94.4851 183.749 94.4851 183.798C94.4851 183.847 105.105 181.186 106.251 166.98C106.83 159.945 105.598 148.537 104.292 139.235Z" fill="#FFBF9D"/>
<path d="M102.507 152.122C102.545 152.591 102.4 153.056 102.101 153.42C101.802 153.783 101.373 154.016 100.906 154.069C100.678 154.105 100.445 154.096 100.221 154.041C99.997 153.986 99.7863 153.886 99.6014 153.749C99.4164 153.611 99.261 153.437 99.1443 153.238C99.0276 153.039 98.952 152.819 98.922 152.59C98.8838 152.121 99.0296 151.656 99.3286 151.293C99.6275 150.929 100.056 150.696 100.524 150.644C100.751 150.607 100.984 150.617 101.208 150.672C101.432 150.727 101.643 150.826 101.828 150.964C102.013 151.102 102.168 151.275 102.285 151.474C102.402 151.673 102.477 151.893 102.507 152.122Z" fill="#263238"/>
<path d="M85.0106 153.218C85.0521 153.686 84.9092 154.152 84.6122 154.515C84.3152 154.879 83.8878 155.112 83.4212 155.165C83.1937 155.2 82.9615 155.189 82.7381 155.133C82.5148 155.078 82.3047 154.978 82.1202 154.841C81.9356 154.703 81.7802 154.53 81.6631 154.332C81.5459 154.134 81.4693 153.915 81.4376 153.687C81.3994 153.218 81.5452 152.752 81.8442 152.389C82.1431 152.026 82.5717 151.793 83.0393 151.74C83.2663 151.703 83.4984 151.713 83.7217 151.768C83.9449 151.823 84.1548 151.923 84.3388 152.061C84.5227 152.199 84.677 152.372 84.7924 152.571C84.9079 152.77 84.982 152.99 85.0106 153.218Z" fill="#263238"/>
<path d="M103.148 146.183C102.951 146.516 101.275 145.456 99.1808 145.764C97.0863 146.072 95.7434 147.502 95.4847 147.243C95.2259 146.984 95.4847 146.553 96.0884 145.9C96.8464 145.049 97.8829 144.496 99.0119 144.34C100.141 144.184 101.288 144.436 102.249 145.05C102.939 145.53 103.247 146.035 103.148 146.183Z" fill="#263238"/>
<path d="M84.3315 147.748C84.0851 148.056 82.4465 146.861 80.1919 146.96C77.9372 147.058 76.3356 148.327 76.0768 148.044C75.8181 147.761 76.1877 147.379 76.89 146.812C77.8118 146.051 78.9602 145.618 80.1549 145.58C81.3439 145.533 82.5145 145.884 83.4814 146.578C84.1837 147.083 84.4424 147.6 84.3315 147.748Z" fill="#263238"/>
<path d="M91.3923 161.017C92.387 160.611 93.4309 160.338 94.497 160.204C94.9775 160.118 95.4457 159.982 95.495 159.637C95.5014 159.122 95.3463 158.618 95.0514 158.196C94.497 157.038 93.918 155.818 93.3019 154.5C90.8378 149.288 89.0514 145.001 89.2608 144.902C89.4703 144.804 91.6264 148.943 94.0658 154.142C94.6572 155.436 95.2239 156.607 95.7537 157.839C96.1141 158.41 96.2583 159.092 96.1603 159.761C96.1038 159.941 96.0067 160.106 95.8764 160.242C95.7461 160.379 95.5861 160.484 95.4087 160.549C95.1418 160.641 94.8645 160.698 94.5833 160.722C93.535 160.946 92.4639 161.045 91.3923 161.017Z" fill="#263238"/>
<path d="M94.4851 183.822C87.8874 184.428 81.251 183.191 75.3145 180.25C75.3145 180.25 80.7971 189.736 94.7315 187.346L94.4851 183.822Z" fill="#FF9A6C"/>
<path d="M85.4913 166.66C85.7111 166.173 86.0501 165.749 86.477 165.428C86.9994 165.18 87.5925 165.123 88.1525 165.268C88.9846 165.389 89.7545 165.779 90.3456 166.377C90.6357 166.679 90.84 167.052 90.9375 167.459C91.0349 167.867 91.022 168.292 90.9 168.693C90.6782 169.506 89.4708 169.925 88.6454 170.097C87.7902 170.222 86.9183 170.044 86.1813 169.592C85.8607 169.446 85.5808 169.224 85.366 168.945C85.1512 168.666 85.0081 168.338 84.9492 167.991C85.0039 167.506 85.1915 167.045 85.4913 166.66Z" fill="#FF9A6C"/>
<path d="M85.8876 163.937C86.1956 163.937 86.3681 165.995 88.2778 167.35C90.1874 168.705 92.4051 168.299 92.4421 168.582C92.4791 168.865 91.9862 169.026 91.0376 169.124C89.8066 169.237 88.5755 168.91 87.5632 168.2C86.5864 167.526 85.9138 166.495 85.6905 165.329C85.5673 164.479 85.7398 163.937 85.8876 163.937Z" fill="#263238"/>
<path d="M84.161 140.171C84.0008 140.701 82.0542 140.602 79.7996 141.058C77.5449 141.514 75.7584 142.29 75.4258 141.81C75.2779 141.6 75.549 141.083 76.2513 140.516C77.1919 139.815 78.281 139.34 79.4345 139.126C80.5879 138.912 81.775 138.966 82.9043 139.284C83.7667 139.53 84.2226 139.912 84.161 140.171Z" fill="#263238"/>
<path d="M101.95 139.124C101.593 139.592 100.04 139.259 98.2537 139.382C96.4672 139.506 94.8902 139.937 94.496 139.506C94.3235 139.296 94.496 138.828 95.1736 138.36C96.0646 137.773 97.101 137.444 98.1675 137.411C99.2273 137.335 100.287 137.561 101.223 138.064C101.864 138.434 102.11 138.877 101.95 139.124Z" fill="#263238"/>
<path d="M57.0669 133.136C58.299 131.14 60.6891 130.117 62.9068 129.267C72.4845 125.569 82.4688 123.025 92.6484 121.69C93.8805 123.772 92.747 126.618 90.8373 128.134C88.9276 129.649 86.4636 130.253 84.1843 131.103C81.905 131.953 79.5518 133.284 78.6031 135.538C77.6544 137.793 78.4553 140.762 77.5682 143.202C76.0528 147.415 70.1759 148.771 68.7098 152.972C67.5763 156.163 69.4243 159.551 69.9418 162.902C70.1784 164.603 70.0495 166.335 69.5638 167.982C69.078 169.629 68.2465 171.153 67.1247 172.453C66.003 173.753 64.6168 174.799 63.0588 175.521C61.5007 176.243 59.8066 176.624 58.0895 176.639C57.3996 164.574 56.7055 152.516 56.0074 140.467C55.7979 137.953 55.6994 135.243 57.0669 133.136Z" fill="#263238"/>
<path d="M32.7721 163.605C34.6818 161.892 37.072 160.414 37.8235 157.974C38.9324 154.414 36.074 150.237 37.9221 146.997C39.5977 144.04 44.5382 144.2 46.1029 141.181C47.3349 138.816 45.9181 136.734 46.3739 134.664C46.8298 132.594 49.7867 130.783 51.8812 131.029L68.3167 154.894C69.8444 162.902 71.3845 167.215 69.6719 171.847C68.5393 174.341 67.684 176.953 67.1216 179.634C66.752 182.344 67.4542 185.412 69.6596 187.026C59.8032 187.802 50.5875 182.652 42.0618 177.662L33.0801 172.389C32.0969 171.919 31.2491 171.207 30.616 170.319C29.2731 168.126 30.8748 165.305 32.7721 163.605Z" fill="#263238"/>
<path d="M41.8496 175.235C42.1935 175.346 42.5491 175.416 42.9092 175.445C43.937 175.543 44.974 175.468 45.977 175.223C47.578 174.839 49.0515 174.045 50.2522 172.919C51.8381 171.393 52.8332 169.355 53.0612 167.165C53.2094 165.896 53.1004 164.609 52.7409 163.383C52.2991 162.076 51.686 160.833 50.9175 159.687C50.1026 158.523 49.4672 157.244 49.0324 155.892C48.8015 155.201 48.7293 154.466 48.821 153.743C48.9127 153.02 49.166 152.327 49.5622 151.715C50.4493 150.483 52.1126 150.225 53.6649 149.609C54.5034 149.307 55.2327 148.763 55.7594 148.044C56.2444 147.276 56.481 146.377 56.437 145.469C56.224 143.729 55.8486 142.013 55.3159 140.344C55.1267 139.533 55.1267 138.69 55.3159 137.88C55.5328 137.062 56.0355 136.35 56.7327 135.871C58.2319 135.007 59.9305 134.548 61.6609 134.541C63.4519 134.482 65.1984 133.969 66.737 133.05C68.234 132.137 69.4493 130.828 70.2483 129.268C70.9041 127.769 71.3198 126.177 71.4803 124.549C71.6513 123.042 71.9732 121.556 72.4413 120.113C72.9602 118.802 73.7494 117.614 74.7576 116.627C76.6171 114.862 79.0177 113.777 81.5708 113.547C83.6995 113.365 85.8361 113.792 87.731 114.779C89.1563 115.508 90.4411 116.484 91.5257 117.662C92.4322 118.69 93.2177 119.818 93.8666 121.025C93.8666 121.025 93.8666 120.939 93.7804 120.766C93.6793 120.522 93.5641 120.283 93.4354 120.052C92.965 119.157 92.3901 118.322 91.7229 117.563C90.6391 116.338 89.3458 115.316 87.9035 114.545C85.9887 113.492 83.8128 113.009 81.6324 113.152C78.9568 113.348 76.4297 114.457 74.4742 116.294C73.3968 117.335 72.5564 118.595 72.0101 119.99C71.5216 121.459 71.1832 122.974 70.9998 124.512C70.8289 126.086 70.4132 127.624 69.7678 129.07C69.0165 130.525 67.8836 131.747 66.4905 132.606C65.0226 133.467 63.362 133.946 61.6609 133.999C59.807 133.995 57.986 134.488 56.3878 135.428C55.5882 135.972 55.011 136.785 54.7615 137.719C54.5455 138.631 54.5455 139.58 54.7615 140.492C55.2832 142.13 55.6544 143.812 55.8703 145.518C55.9211 146.311 55.7229 147.099 55.3036 147.773C54.8276 148.398 54.1818 148.873 53.4432 149.14C52.7163 149.448 51.9278 149.658 51.1639 149.978C50.3685 150.279 49.667 150.784 49.131 151.444C48.6959 152.125 48.4171 152.893 48.3148 153.694C48.2126 154.495 48.2893 155.309 48.5396 156.077C49.001 157.472 49.6652 158.793 50.5109 159.995C51.2613 161.084 51.8622 162.269 52.2974 163.518C52.6465 164.684 52.7637 165.906 52.6423 167.116C52.4404 169.223 51.5077 171.193 50.0058 172.685C48.8562 173.798 47.4388 174.596 45.8907 175.001C44.5724 175.345 43.1989 175.425 41.8496 175.235Z" fill="#455A64"/>
<path d="M28.7192 158.27C28.558 158.512 28.4489 158.784 28.3989 159.071C28.235 159.916 28.3839 160.791 28.8178 161.535C29.1184 162.065 29.5407 162.517 30.0498 162.853C30.6845 163.237 31.4149 163.433 32.1566 163.42C33.0579 163.4 33.9366 163.133 34.6969 162.649C35.4572 162.164 36.0701 161.481 36.4688 160.672C36.9374 159.744 37.1782 158.718 37.1711 157.678C37.1413 156.561 36.9075 155.459 36.4811 154.426C35.7049 152.294 34.2757 150.212 34.2511 147.723C34.2045 147.111 34.282 146.495 34.4789 145.913C34.6757 145.33 34.988 144.794 35.3969 144.335C36.3958 143.51 37.6794 143.112 38.9698 143.226C40.4058 143.331 41.8491 143.181 43.2327 142.783C43.9577 142.488 44.5703 141.97 44.9822 141.304C45.3788 140.643 45.6268 139.903 45.7091 139.136C45.7801 137.665 45.66 136.19 45.3518 134.75C45.1313 133.398 45.2112 132.014 45.5859 130.696C46.2843 128.181 47.9201 126.03 50.1568 124.684C52.28 123.603 54.637 123.061 57.0193 123.107C59.1366 123.112 61.241 122.779 63.2535 122.121C64.8897 121.521 66.3894 120.599 67.6642 119.411C68.6405 118.509 69.4716 117.462 70.1283 116.306C70.7062 115.348 71.103 114.291 71.2987 113.189C70.932 114.229 70.4743 115.235 69.9312 116.195C68.379 118.786 65.9881 120.768 63.1549 121.813C61.1593 122.424 59.0815 122.723 56.9947 122.7C54.5431 122.631 52.1128 123.173 49.9227 124.278C47.5706 125.657 45.8342 127.882 45.0685 130.499C44.6742 131.889 44.586 133.348 44.8097 134.775C45.0981 136.168 45.2181 137.591 45.167 139.013C45.1379 139.689 44.9237 140.344 44.5479 140.907C44.172 141.469 43.6489 141.918 43.0356 142.204C41.719 142.578 40.3467 142.715 38.9822 142.61C37.5532 142.485 36.1325 142.928 35.0273 143.842C34.576 144.356 34.234 144.957 34.0222 145.607C33.8104 146.257 33.7332 146.944 33.7952 147.625C33.8497 148.904 34.1553 150.16 34.6946 151.321C35.1751 152.43 35.7049 153.465 36.1115 154.5C36.5249 155.481 36.7586 156.528 36.8014 157.592C36.8183 158.564 36.6073 159.526 36.1854 160.401C35.8279 161.156 35.2702 161.799 34.573 162.26C33.8757 162.72 33.0655 162.981 32.2305 163.013C31.5456 163.038 30.8674 162.871 30.2716 162.533C29.7616 162.235 29.3372 161.811 29.0395 161.301C28.6077 160.615 28.429 159.8 28.5344 158.997C28.596 158.553 28.7562 158.282 28.7192 158.27Z" fill="#263238"/>
<path d="M132.495 164.147C132.788 164.98 132.788 165.888 132.495 166.722C132.332 167.2 132.064 167.636 131.71 167.996C131.356 168.357 130.925 168.633 130.45 168.804C129.816 168.991 129.142 168.998 128.505 168.823C127.867 168.649 127.291 168.301 126.84 167.818C126.322 167.249 126.021 166.517 125.99 165.748C125.966 164.911 126.095 164.076 126.371 163.284C126.889 161.621 127.961 159.81 127.801 157.629C127.723 156.524 127.415 155.446 126.898 154.466C126.38 153.486 125.664 152.625 124.794 151.937C123.884 151.208 122.843 150.661 121.727 150.323C120.586 150.007 119.411 149.837 118.228 149.818C117.081 149.809 115.938 149.689 114.815 149.461C113.766 149.244 112.828 148.664 112.166 147.822C111.58 146.958 111.251 145.946 111.217 144.902C111.162 143.885 111.245 142.866 111.464 141.871C112.004 139.995 112.303 138.057 112.351 136.105C112.252 134.372 111.638 132.708 110.589 131.325C109.702 130.228 108.615 129.308 107.386 128.614C106.488 128.083 105.627 127.49 104.811 126.84C104.141 126.267 103.596 125.563 103.209 124.771C103.209 124.771 103.209 124.771 103.209 124.943C103.258 125.11 103.324 125.271 103.406 125.423C103.713 126.022 104.131 126.557 104.638 127.001C105.437 127.696 106.29 128.326 107.188 128.886C108.364 129.585 109.4 130.495 110.244 131.571C111.221 132.897 111.778 134.485 111.846 136.13C111.772 138.038 111.462 139.929 110.922 141.76C110.683 142.802 110.588 143.872 110.638 144.939C110.684 146.089 111.051 147.203 111.698 148.155C112.432 149.105 113.48 149.764 114.655 150.015C115.811 150.252 116.986 150.38 118.166 150.397C119.306 150.412 120.44 150.569 121.542 150.865C122.587 151.19 123.564 151.704 124.425 152.381C125.235 153.019 125.903 153.818 126.389 154.728C126.875 155.638 127.166 156.638 127.246 157.666C127.419 159.65 126.433 161.362 125.891 163.149C125.606 164.006 125.481 164.908 125.521 165.81C125.575 166.671 125.928 167.486 126.519 168.114C127.025 168.644 127.67 169.021 128.381 169.202C129.091 169.383 129.838 169.36 130.536 169.137C131.046 168.939 131.504 168.627 131.875 168.226C132.247 167.825 132.522 167.344 132.68 166.82C132.903 166.178 132.937 165.485 132.778 164.824C132.725 164.583 132.629 164.354 132.495 164.147Z" fill="#263238"/>
<path d="M120.715 260.653V247.026C122.242 239.375 121.515 230.307 117.955 223.322C115.372 218.819 112.516 214.478 109.404 210.324L95.852 192.718C88.3858 198.151 76.6936 194.221 66.6648 190.574C66.6648 190.574 56.8084 196.057 52.1513 201.207C47.3093 206.628 63.868 274.452 63.868 274.452C56.3649 289.458 46.681 302.789 45.2148 316.465L123.573 319.483L120.246 283.557L120.715 260.653Z" fill="#455A64"/>
<path d="M119.632 283.939C119.554 283.429 119.534 282.913 119.571 282.398C119.571 281.277 119.571 279.934 119.571 278.222C119.632 274.526 119.706 269.758 119.792 264.448C119.879 259.137 120.039 254.197 120.211 250.673C120.297 248.911 120.384 247.482 120.458 246.497C120.466 245.986 120.532 245.477 120.655 244.981C120.705 245.489 120.705 246.001 120.655 246.509C120.655 247.63 120.655 248.973 120.655 250.686C120.593 254.382 120.507 259.15 120.421 264.46C120.334 269.77 120.187 274.71 120.014 278.234C119.928 279.996 119.842 281.425 119.755 282.411C119.775 282.923 119.733 283.436 119.632 283.939Z" fill="#263238"/>
<path d="M155.422 296.333C155.422 296.333 163.06 296.752 167.742 299.709C172.424 302.666 180.063 307.274 183.204 312.978C184.646 315.602 180.543 316.157 178.51 314.641C176.477 313.126 173.385 310.243 171.845 309.898L170.305 309.541C171.711 312.723 173.277 315.832 174.999 318.855C176.588 321.319 177.968 325.409 173.188 325.594C173.188 325.594 169.972 329.783 166.72 326.678C166.72 326.678 164.182 330.485 160.091 325.212C160.091 325.212 157.701 328.231 156.715 327.073C155.73 325.914 152.465 324.091 151.516 320.321C150.093 315.932 148.448 311.619 146.588 307.397L155.422 296.333Z" fill="#FFBF9D"/>
<path d="M326.443 190.451C327.293 190.451 362.271 186.755 362.271 186.755C362.271 186.755 365.24 172.537 365.08 168.841C364.92 165.145 362.431 140.689 362.431 140.689L375.528 134.528C375.528 134.528 393.035 193.568 389.216 198.472C385.397 203.375 378.214 207.774 377.598 207.798C376.982 207.823 343.704 222.583 320.554 214.907C297.404 207.231 326.443 190.451 326.443 190.451Z" fill="#FFBF9D"/>
<path d="M295.791 222.324C300.941 227.437 309.812 231.687 324.621 227.991C353.894 220.673 375.837 214.439 384.56 209.757C393.283 205.075 389.882 184.155 390.622 183.206C392.827 180.348 390.4 174.212 387.258 173.251C378.301 170.541 362.716 171.613 361.927 172.426C357.332 177.256 361.521 183.12 361.521 183.12L322.921 188.184C318.175 187.961 313.419 188.263 308.74 189.083" fill="#455A64"/>
<path d="M308.74 189.083L309.664 188.886C310.281 188.775 311.192 188.615 312.4 188.467C315.893 188.028 319.416 187.879 322.934 188.024L361.521 182.849L361.336 183.28C360.069 181.416 359.446 179.187 359.562 176.935C359.668 175.771 360.048 174.647 360.671 173.658C360.984 173.161 361.339 172.691 361.731 172.254C361.885 172.139 362.055 172.048 362.236 171.983L362.679 171.872C362.975 171.798 363.258 171.773 363.542 171.712C368.323 171.16 373.145 171.061 377.944 171.416C380.464 171.569 382.968 171.915 385.435 172.451C386.051 172.586 386.667 172.771 387.308 172.931C387.965 173.141 388.567 173.494 389.07 173.966C390.049 174.897 390.796 176.045 391.251 177.317C391.739 178.592 391.913 179.966 391.756 181.321C391.643 182.027 391.378 182.7 390.98 183.293C390.869 183.416 390.881 183.749 390.869 184.069V185.055C390.955 187.703 391.078 190.402 391.004 193.112C391.024 196.96 390.395 200.784 389.144 204.422C388.501 206.245 387.398 207.871 385.94 209.141C385.186 209.731 384.358 210.22 383.476 210.595C382.663 211.026 381.801 211.359 381.012 211.753C377.636 213.195 374.248 214.377 370.91 215.449C367.571 216.521 364.293 217.556 361.053 218.505C348.166 222.201 336.412 225.195 326.63 227.646C324.293 228.264 321.924 228.754 319.533 229.113C317.391 229.411 315.227 229.527 313.065 229.458C309.592 229.383 306.165 228.639 302.974 227.265C300.973 226.381 299.107 225.22 297.43 223.815C296.84 223.337 296.288 222.814 295.779 222.25C295.779 222.25 296.346 222.792 297.516 223.716C299.215 225.071 301.088 226.19 303.085 227.043C306.257 228.352 309.647 229.05 313.077 229.1C315.216 229.152 317.355 229.02 319.472 228.706C321.846 228.331 324.198 227.83 326.519 227.203C336.375 224.739 348.03 221.708 360.881 217.938C364.096 216.989 367.374 215.979 370.737 214.87C374.101 213.761 377.439 212.591 380.778 211.174C381.591 210.792 382.441 210.459 383.242 210.028C384.065 209.666 384.839 209.202 385.546 208.648C386.922 207.453 387.962 205.92 388.565 204.201C389.779 200.61 390.382 196.841 390.351 193.051C390.425 190.352 390.351 187.679 390.216 185.018V184.007C390.216 183.835 390.216 183.662 390.216 183.478C390.206 183.379 390.206 183.28 390.216 183.182C390.243 183.106 390.276 183.032 390.314 182.96L390.376 182.862C390.722 182.356 390.95 181.779 391.041 181.174C391.186 179.921 391.021 178.652 390.561 177.478C390.147 176.301 389.463 175.238 388.565 174.373C388.128 173.964 387.607 173.656 387.037 173.473C386.421 173.313 385.805 173.141 385.201 172.993C382.767 172.465 380.295 172.123 377.809 171.97C373.06 171.607 368.286 171.698 363.554 172.241C363.271 172.241 362.987 172.315 362.716 172.389L362.322 172.475C362.236 172.509 362.154 172.55 362.076 172.599C361.705 173.003 361.371 173.44 361.078 173.905C360.491 174.811 360.136 175.847 360.043 176.923C359.936 179.041 360.515 181.136 361.694 182.899L361.94 183.28H361.509L322.897 188.209C319.399 188.031 315.894 188.13 312.412 188.504C311.18 188.628 310.281 188.763 309.664 188.849C309.048 188.936 308.74 189.083 308.74 189.083Z" fill="#263238"/>
<path d="M204.228 229.209L188.506 200.96L485.886 35.4408C489.312 33.5338 493.355 33.066 497.126 34.1402C500.898 35.2145 504.087 37.7427 505.994 41.1689L507.343 43.5911C509.25 47.0172 509.717 51.0606 508.643 54.8317C507.569 58.6028 505.041 61.7927 501.615 63.6997L204.234 229.219L204.228 229.209Z" fill="#FFAB21"/>
<path d="M453.596 79.8158L417.183 14.3951C417.007 14.0785 416.895 13.7302 416.853 13.3702C416.811 13.0102 416.841 12.6454 416.94 12.2969C417.04 11.9483 417.207 11.6228 417.432 11.3387C417.657 11.0547 417.936 10.8178 418.252 10.6416L434.96 1.34216C435.277 1.1659 435.625 1.05374 435.985 1.01208C436.345 0.970423 436.71 1.00008 437.058 1.09937C437.407 1.19865 437.732 1.36563 438.016 1.59075C438.3 1.81587 438.537 2.09472 438.714 2.41139L475.126 67.832L453.596 79.8158Z" fill="#FFAB21"/>
<path d="M381.964 49.3524L408.502 97.0318C409.574 98.9581 412.005 99.6506 413.931 98.5784L428.486 90.4774C430.412 89.4052 431.105 86.9744 430.033 85.048L403.495 37.3686C402.422 35.4423 399.992 34.7498 398.065 35.822L383.511 43.923C381.584 44.9952 380.892 47.4261 381.964 49.3524Z" fill="#FFAB21"/>
<path d="M405.393 46.568L421.822 76.0864L455.259 57.4756L438.829 27.9572L405.393 46.568Z" fill="#FFAB21"/>
<path d="M481.532 37.9234C481.618 38.0713 423.256 70.7205 351.206 110.836C279.156 150.951 220.609 183.354 220.609 183.194C220.609 183.034 278.873 150.397 350.948 110.269C423.022 70.1415 481.446 37.7633 481.532 37.9234Z" fill="#263238"/>
<path d="M83.7921 283.778C105.723 323.204 151.961 339.22 187.075 319.693C222.188 300.165 232.907 252.361 210.976 212.985C189.046 173.609 142.819 157.543 107.694 177.071C72.5681 196.599 61.874 244.402 83.7921 283.778ZM191.953 223.581C207.317 251.178 199.814 284.653 175.198 298.341C150.581 312.029 118.191 300.805 102.827 273.183C87.4636 245.56 94.9668 212.11 119.571 198.41C144.175 184.709 176.59 195.983 191.953 223.581Z" fill="#FFAB21"/>
<path d="M238.565 172.757L254.791 201.91C256.948 205.786 261.84 207.18 265.716 205.022L267.03 204.291C270.906 202.133 272.299 197.242 270.142 193.365L253.916 164.213C251.758 160.336 246.867 158.943 242.99 161.101L241.677 161.832C237.8 163.989 236.407 168.881 238.565 172.757Z" fill="#FFAB21"/>
<path d="M269.727 155.412L285.953 184.564C288.11 188.441 293.002 189.834 296.878 187.676L298.192 186.945C302.068 184.788 303.462 179.896 301.304 176.02L285.078 146.867C282.92 142.991 278.029 141.597 274.152 143.755L272.839 144.486C268.962 146.644 267.569 151.535 269.727 155.412Z" fill="#FFAB21"/>
<path d="M253.568 163.765C253.728 163.679 257.486 170.295 261.983 178.549C266.48 186.804 269.991 193.531 269.831 193.617C269.671 193.703 265.913 187.1 261.416 178.833C256.919 170.566 253.408 163.765 253.568 163.765Z" fill="#263238"/>
<path d="M239.264 173.929C239.424 173.843 243.096 180.163 247.482 188.024C251.868 195.884 255.281 202.353 255.133 202.439C254.985 202.525 251.301 196.205 246.965 188.406C242.628 180.607 239.116 174.015 239.264 173.929Z" fill="#263238"/>
<path d="M284.924 146.602C285.085 146.516 288.916 153.095 293.487 161.301C298.058 169.506 301.631 176.245 301.471 176.332C301.311 176.418 297.491 169.826 292.92 161.621C288.349 153.415 284.777 146.689 284.924 146.602Z" fill="#263238"/>
<path d="M269.878 155.682C270.026 155.596 273.784 162.138 278.244 170.295C282.704 178.451 286.215 185.079 286.055 185.215C285.895 185.35 282.162 178.759 277.69 170.603C273.217 162.446 269.718 155.769 269.878 155.682Z" fill="#263238"/>
<path d="M359.241 111.243C360.675 111.411 362.121 111.04 363.297 110.202C364.473 109.363 365.295 108.116 365.603 106.705C365.91 105.294 365.681 103.818 364.961 102.566C364.24 101.314 363.08 100.376 361.705 99.9324C362.593 99.0224 363.173 97.856 363.362 96.5983C363.551 95.3405 363.34 94.0551 362.758 92.9242C362.176 91.7932 361.253 90.8739 360.12 90.2964C358.987 89.7189 357.701 89.5125 356.444 89.7064C356.392 88.4554 356.018 87.2391 355.357 86.1757C354.696 85.1124 353.771 84.238 352.672 83.6378C351.573 83.0376 350.338 82.7318 349.086 82.7503C347.834 82.7688 346.608 83.1109 345.528 83.7433C344.119 82.5913 342.365 81.9437 340.546 81.9035C338.726 81.8633 336.945 82.4328 335.487 83.5215C334.261 83.2876 332.993 83.4548 331.87 83.9984C330.747 84.542 329.829 85.433 329.253 86.5392C328.676 87.6455 328.471 88.9082 328.669 90.14C328.866 91.3719 329.456 92.5073 330.349 93.3779" fill="#263238"/>
<path d="M334.242 89.2629H335.474C341.686 89.2682 347.668 91.6126 352.23 95.8294C356.791 100.046 359.598 105.826 360.09 112.019C361.014 123.957 361.876 137.153 361.778 143.559C361.544 156.865 348.312 158.837 348.312 158.837L349.383 174.779L317.19 173.732L314.517 115.949C313.383 102.162 320.443 90.0268 334.242 89.2629Z" fill="#FFBF9D"/>
<path d="M348.424 158.837C342.265 158.82 336.24 157.037 331.064 153.699C331.064 153.699 335.327 163.74 348.559 162.582L348.424 158.837Z" fill="#FF9A6C"/>
<path d="M352.808 124.524C352.811 125.018 352.621 125.493 352.278 125.848C351.934 126.202 351.466 126.408 350.972 126.421C350.731 126.438 350.49 126.407 350.262 126.33C350.033 126.252 349.822 126.131 349.641 125.971C349.46 125.812 349.313 125.618 349.207 125.402C349.101 125.185 349.039 124.95 349.025 124.709C349.025 124.215 349.216 123.74 349.558 123.384C349.901 123.028 350.368 122.818 350.861 122.799C351.103 122.782 351.345 122.814 351.574 122.892C351.804 122.97 352.015 123.093 352.196 123.253C352.377 123.414 352.525 123.609 352.63 123.827C352.735 124.045 352.795 124.282 352.808 124.524Z" fill="#263238"/>
<path d="M357.221 118.536C356.987 118.783 355.545 117.723 353.525 117.723C351.504 117.723 349.989 118.733 349.767 118.487C349.545 118.241 349.903 117.933 350.556 117.452C351.439 116.845 352.489 116.526 353.562 116.54C354.621 116.536 355.654 116.873 356.506 117.501C357.122 117.982 357.332 118.438 357.221 118.536Z" fill="#263238"/>
<path d="M334.439 123.637C334.449 124.138 334.26 124.623 333.914 124.985C333.568 125.348 333.092 125.558 332.591 125.571C332.351 125.588 332.109 125.557 331.881 125.48C331.652 125.402 331.441 125.281 331.26 125.121C331.079 124.962 330.932 124.768 330.826 124.552C330.72 124.335 330.659 124.1 330.645 123.859C330.641 123.364 330.831 122.887 331.174 122.531C331.517 122.174 331.986 121.965 332.48 121.949C332.72 121.931 332.961 121.96 333.189 122.035C333.417 122.11 333.629 122.229 333.811 122.386C333.993 122.543 334.142 122.734 334.25 122.949C334.358 123.163 334.422 123.397 334.439 123.637Z" fill="#263238"/>
<path d="M337.188 118.857C336.954 119.103 335.512 118.044 333.492 118.044C331.471 118.044 329.956 119.054 329.734 118.807C329.512 118.561 329.869 118.253 330.522 117.773C331.406 117.165 332.456 116.847 333.529 116.861C334.588 116.856 335.62 117.193 336.473 117.822C337.089 118.302 337.299 118.746 337.188 118.857Z" fill="#263238"/>
<path d="M344.528 133.999C345.603 133.661 346.717 133.462 347.842 133.407C348.36 133.407 348.853 133.259 348.951 132.902C348.995 132.366 348.874 131.829 348.606 131.362L347.078 127.395C344.959 121.74 343.382 117.095 343.653 117.021C343.924 116.947 345.785 121.444 347.904 127.087C348.409 128.479 348.902 129.81 349.37 131.079C349.69 131.71 349.781 132.433 349.629 133.124C349.551 133.306 349.434 133.469 349.284 133.599C349.135 133.729 348.958 133.824 348.766 133.875C348.483 133.96 348.188 134.001 347.892 133.999C346.775 134.138 345.645 134.138 344.528 133.999Z" fill="#263238"/>
<path d="M338.973 111.021C338.702 111.538 336.965 111.021 334.808 110.898C332.652 110.775 330.854 111.181 330.657 110.639C330.57 110.38 330.952 109.924 331.728 109.506C332.73 109.011 333.841 108.782 334.956 108.84C336.062 108.879 337.138 109.211 338.073 109.801C338.776 110.282 339.096 110.787 338.973 111.021Z" fill="#263238"/>
<path d="M357.342 110.146C356.911 110.602 355.223 110.146 353.203 110.146C351.182 110.146 349.507 110.454 349.075 109.961C348.903 109.727 349.174 109.259 349.926 108.828C350.961 108.285 352.121 108.026 353.289 108.076C354.451 108.092 355.587 108.42 356.579 109.025C357.293 109.444 357.527 109.912 357.342 110.146Z" fill="#263238"/>
<path d="M358.835 105.982C358.835 105.982 355.361 97.6655 351.357 95.7188C346.515 93.3533 344.42 98.6634 339.8 97.3575C335.18 96.0515 330.56 93.7968 325.829 97.3575C320.654 101.251 323.069 103.998 322.724 109.887C321.369 133.74 316.983 140.467 315.787 129.231C315.652 127.998 312.239 127.013 311.746 121.838C311.106 115.099 310.872 106.906 312.399 102.125C313.631 98.0967 315.985 95.3123 320.112 92.2691C326.642 87.4395 335.586 87.3409 341.66 87.9939C347.734 88.6469 359.414 95.5833 358.835 105.982Z" fill="#263238"/>
<path d="M316.623 128.861C316.609 128.374 316.497 127.895 316.293 127.453C316.089 127.011 315.797 126.615 315.435 126.289C315.073 125.963 314.649 125.714 314.189 125.557C313.728 125.399 313.24 125.337 312.754 125.374C310.29 125.608 307.518 127.001 307.666 132.114C307.925 141.181 316.98 139.05 316.992 138.779C317.005 138.508 316.771 132.656 316.623 128.861Z" fill="#FFBF9D"/>
<path d="M314.912 135.428C314.912 135.428 314.764 135.551 314.493 135.674C314.125 135.843 313.707 135.865 313.323 135.736C312.724 135.382 312.232 134.874 311.896 134.265C311.56 133.656 311.393 132.969 311.413 132.274C311.366 131.5 311.492 130.725 311.783 130.007C311.861 129.723 312.008 129.462 312.209 129.247C312.411 129.032 312.662 128.87 312.941 128.775C313.122 128.72 313.316 128.73 313.49 128.805C313.663 128.879 313.805 129.012 313.89 129.181C314.013 129.428 313.964 129.612 314.013 129.625C314.062 129.637 314.198 129.465 314.111 129.095C314.063 128.87 313.931 128.672 313.742 128.541C313.617 128.449 313.476 128.383 313.326 128.347C313.175 128.311 313.019 128.306 312.867 128.331C312.496 128.415 312.153 128.592 311.87 128.847C311.587 129.101 311.375 129.424 311.253 129.785C310.887 130.579 310.722 131.45 310.773 132.323C310.884 134.146 311.869 135.834 313.237 136.179C313.481 136.244 313.736 136.251 313.984 136.202C314.232 136.153 314.465 136.048 314.666 135.896C314.912 135.649 314.949 135.428 314.912 135.428Z" fill="#FF9A6C"/>
<path d="M316.858 111.292C317.967 112.196 319.284 112.81 320.69 113.078C321.396 113.189 322.118 113.04 322.723 112.66C323.327 112.279 323.774 111.693 323.979 111.008C324.09 110.38 323.979 109.641 324.349 109.16C324.719 108.68 325.766 108.766 326.517 108.852C329.154 109.136 332.246 106.228 332.924 103.665C333.266 104.157 333.783 104.499 334.369 104.623C334.955 104.747 335.566 104.642 336.078 104.331C336.916 103.819 337.658 103.164 338.271 102.396C338.628 101.908 339.098 101.512 339.641 101.244C340.184 100.976 340.783 100.843 341.388 100.856C342.026 101.077 342.688 101.221 343.36 101.288C344.592 101.189 345.134 99.7968 345.319 98.614C345.503 97.4313 345.651 96.0637 346.661 95.423C347.698 95.0168 348.845 94.9863 349.902 95.3368C350.998 95.5093 352.366 95.2506 352.698 94.1787C352.744 93.8922 352.731 93.5996 352.661 93.3182C352.591 93.0367 352.466 92.7721 352.292 92.5401C351.559 91.4411 350.476 90.6218 349.22 90.2148C347.963 89.8079 346.606 89.8371 345.368 90.2977C344.932 88.7814 344.054 87.4293 342.847 86.4134C341.64 85.3976 340.158 84.7641 338.589 84.5936C337.021 84.4232 335.437 84.7235 334.04 85.4563C332.642 86.189 331.495 87.3212 330.743 88.7084C329.784 87.8296 328.626 87.1958 327.369 86.8612C326.111 86.5266 324.791 86.501 323.522 86.7866C322.252 87.0722 321.071 87.6605 320.078 88.5014C319.085 89.3424 318.31 90.4109 317.819 91.616C316.71 91.3202 315.538 91.357 314.45 91.722C313.362 92.087 312.405 92.764 311.698 93.6688C310.992 94.5736 310.567 95.6661 310.477 96.8105C310.387 97.9549 310.635 99.1005 311.191 100.105C310.347 100.522 309.622 101.146 309.086 101.92C308.549 102.694 308.218 103.591 308.123 104.528C308.123 106.401 309.909 108.224 311.721 107.78C311.345 108.518 311.266 109.372 311.5 110.166C311.734 110.961 312.264 111.635 312.98 112.051C313.695 112.468 314.543 112.594 315.349 112.405C316.155 112.215 316.859 111.725 317.314 111.033" fill="#263238"/>
<path d="M346.032 92.959C346.032 92.959 346.032 92.959 346.032 93.1315C346.032 93.304 346.032 93.4025 345.97 93.612C345.843 94.2268 345.618 94.8174 345.305 95.3615C344.805 96.2141 344.118 96.9427 343.297 97.4929C342.211 98.2335 340.914 98.601 339.601 98.5402L339.748 98.343C340.015 99.1566 339.948 100.042 339.564 100.807C339.156 101.618 338.634 102.365 338.011 103.025C337.709 103.41 337.366 103.761 336.989 104.072C336.318 104.513 335.513 104.702 334.717 104.605C333.921 104.508 333.184 104.131 332.64 103.542L332.972 103.444C332.845 104.385 332.521 105.289 332.023 106.098C331.524 106.907 330.861 107.602 330.077 108.138C329.216 108.778 328.169 109.12 327.095 109.111C326.089 109.056 325.098 108.836 324.163 108.458L324.409 108.347C323.935 109.444 323.194 110.406 322.253 111.144C321.824 111.512 321.318 111.779 320.773 111.926C320.227 112.073 319.655 112.096 319.099 111.994C318.146 111.787 317.275 111.306 316.592 110.609C315.909 109.913 315.444 109.033 315.255 108.076L315.465 108.175C314.506 108.671 313.407 108.828 312.348 108.618C311.559 108.468 310.816 108.134 310.179 107.645C309.783 107.334 309.442 106.959 309.169 106.536C309.069 106.389 308.994 106.227 308.947 106.056C309.292 106.622 309.739 107.119 310.266 107.522C310.893 107.976 311.619 108.276 312.385 108.397C313.391 108.587 314.432 108.421 315.329 107.928L315.502 107.83V108.027C315.688 108.917 316.13 109.734 316.774 110.377C317.417 111.021 318.234 111.463 319.124 111.649C319.632 111.738 320.153 111.712 320.65 111.573C321.147 111.435 321.606 111.187 321.995 110.848C322.877 110.147 323.572 109.236 324.015 108.199L324.089 108.039H324.262C325.153 108.398 326.098 108.606 327.058 108.655C328.052 108.663 329.02 108.348 329.818 107.756C330.556 107.249 331.181 106.594 331.652 105.833C332.123 105.071 332.43 104.22 332.553 103.333V102.902L332.837 103.234C333.157 103.588 333.559 103.859 334.008 104.022C334.457 104.185 334.939 104.236 335.412 104.171C335.853 104.112 336.275 103.952 336.644 103.702C337 103.416 337.323 103.089 337.605 102.729C338.214 102.101 338.729 101.387 339.132 100.61C339.314 100.264 339.425 99.8855 339.459 99.4963C339.493 99.1071 339.449 98.7151 339.33 98.343L339.256 98.1213H339.49C340.748 98.1994 341.998 97.8664 343.05 97.1726C343.859 96.652 344.541 95.9575 345.046 95.1397C345.501 94.4768 345.835 93.7384 346.032 92.959Z" fill="#455A64"/>
<path d="M344.503 140.762C344.43 140.43 342.224 140.972 340.179 139.469C338.134 137.966 337.801 135.551 337.493 135.612C337.185 135.674 337.185 136.253 337.407 137.251C337.711 138.553 338.466 139.706 339.538 140.504C340.563 141.267 341.844 141.603 343.111 141.44C344.06 141.292 344.553 140.91 344.503 140.762Z" fill="#263238"/>
<path d="M412.836 485.477L421.584 515.28C421.584 515.28 454.849 516.389 456.981 521.748L399.74 540.771L384.191 494.877L412.836 485.477Z" fill="#455A64"/>
<path d="M403.077 518.693C402.583 519.044 402.236 519.565 402.102 520.156C401.968 520.747 402.056 521.366 402.35 521.896C402.682 522.403 403.195 522.763 403.784 522.903C404.373 523.043 404.993 522.951 405.517 522.648C406.04 522.274 406.407 521.72 406.546 521.092C406.685 520.464 406.586 519.807 406.268 519.247C405.867 518.753 405.29 518.434 404.658 518.356C404.027 518.278 403.39 518.447 402.88 518.828" fill="#E0E0E0"/>
<path d="M453.752 519.592C453.752 519.592 456.672 519.851 456.98 521.748L399.739 540.771L398.359 536.077L453.703 519.568" fill="#263238"/>
<path d="M422.408 514.677C422.495 514.96 421.176 515.551 420.067 516.907C418.959 518.262 418.651 519.679 418.355 519.654C418.059 519.629 417.948 517.88 419.279 516.266C420.61 514.652 422.384 514.405 422.408 514.677Z" fill="white"/>
<path d="M429.232 515.157C429.392 515.416 428.345 516.29 427.778 517.781C427.211 519.272 427.371 520.627 427.088 520.701C426.804 520.775 426.102 519.26 426.829 517.411C427.556 515.563 429.145 514.898 429.232 515.157Z" fill="white"/>
<path d="M435.037 521.206C434.802 521.354 433.952 520.085 434.162 518.323C434.371 516.561 435.468 515.502 435.665 515.699C435.862 515.896 435.32 516.931 435.172 518.434C435.024 519.937 435.308 521.058 435.037 521.206Z" fill="white"/>
<path d="M419.66 508.11C419.66 508.405 418.219 508.442 416.679 509.071C415.139 509.699 414.067 510.611 413.845 510.426C413.623 510.241 414.473 508.849 416.309 508.122C418.145 507.395 419.734 507.839 419.66 508.11Z" fill="white"/>
<path d="M279.355 485.736L266.899 514.196C266.899 514.196 291.651 536.373 289.865 541.892L233.807 519.715L251.388 474.573L279.355 485.736Z" fill="#455A64"/>
<path d="M250.526 504.919C249.923 504.871 249.324 505.047 248.842 505.413C248.36 505.778 248.03 506.309 247.914 506.902C247.845 507.503 248.008 508.108 248.37 508.594C248.731 509.079 249.265 509.408 249.861 509.514C250.501 509.562 251.136 509.372 251.645 508.981C252.154 508.59 252.501 508.026 252.62 507.395C252.62 506.163 251.499 504.758 250.292 504.931" fill="#E0E0E0"/>
<path d="M288.768 538.171C288.768 538.171 290.838 540.254 289.865 541.868L233.807 519.691L235.766 515.218L288.744 538.134" fill="#263238"/>
<path d="M267.909 514.27C267.798 514.541 266.381 514.122 264.681 514.467C262.981 514.812 261.81 515.699 261.601 515.477C261.391 515.255 262.426 513.851 264.484 513.469C266.541 513.087 268.081 514.036 267.909 514.27Z" fill="white"/>
<path d="M272.837 519.025C272.837 519.309 271.433 519.309 270.041 520.097C268.649 520.886 267.909 522.007 267.577 521.896C267.244 521.785 267.749 520.159 269.486 519.21C271.224 518.262 272.936 518.767 272.837 519.025Z" fill="white"/>
<path d="M273.406 527.379C273.135 527.379 273.295 525.826 274.638 524.607C275.981 523.387 277.447 523.288 277.471 523.559C277.496 523.831 276.387 524.323 275.34 525.346C274.293 526.369 273.689 527.465 273.406 527.379Z" fill="white"/>
<path d="M270.041 507.506C269.832 507.703 268.723 506.841 267.134 506.274C265.544 505.707 264.152 505.781 264.103 505.498C264.053 505.214 265.593 504.685 267.454 505.301C269.314 505.917 270.263 507.309 270.041 507.506Z" fill="white"/>
<path d="M300.338 329.389L280.699 409.053C280.699 409.053 245.277 468.684 239.277 498.524L271.68 511.264C271.68 511.264 295.249 453.789 302.161 443.242C305.271 438.516 308.845 434.112 312.831 430.096C315.422 427.526 317.281 424.31 318.215 420.782L333.085 363.948L300.338 329.389Z" fill="#263238"/>
<path d="M291.969 316.649C291.969 316.649 294.704 337.989 315.242 347.451L358.512 417.924C358.512 417.924 361.9 440.84 368.368 460.146C374.836 479.452 387.908 516.66 387.908 516.66L423.502 503.354L400.82 425.809L397.124 398.913L361.813 308.974L331.48 290.789L291.969 316.649Z" fill="#263238"/>
<path d="M291.969 316.649L292.622 316.206L294.581 314.9L302.269 309.824L331.419 290.666L331.517 290.604L331.616 290.666L361.974 308.814V308.888L397.358 398.741V398.802C398.528 407.303 399.822 416.408 401.054 425.698C407.214 446.643 413.744 469.054 420.496 492.142C421.588 495.863 422.672 499.559 423.748 503.231L423.835 503.514L423.551 503.613L387.958 516.919L387.65 517.03L387.551 516.722C381.391 498.845 375.428 481.633 369.797 465.308C368.38 461.23 366.988 457.189 365.83 453.148C364.672 449.107 363.625 445.09 362.676 441.123C360.803 433.189 359.3 425.439 358.117 417.924V418.022L315.094 347.525L315.168 347.586C309.965 345.153 305.343 341.632 301.616 337.262C298.884 334.053 296.642 330.457 294.963 326.592C293.924 324.206 293.099 321.732 292.499 319.2C292.289 318.362 292.166 317.709 292.092 317.265C292.018 316.822 292.006 316.6 292.006 316.6C292.006 316.6 292.006 316.822 292.141 317.253C292.277 317.684 292.351 318.337 292.585 319.187C293.221 321.687 294.07 324.127 295.123 326.481C296.823 330.307 299.072 333.864 301.8 337.04C305.542 341.365 310.162 344.843 315.353 347.241L358.709 417.665V417.727C359.941 425.217 361.419 432.955 363.292 440.877C364.241 444.832 365.276 448.836 366.446 452.865C367.616 456.893 368.996 460.91 370.413 464.988C376.068 481.312 382.019 498.524 388.204 516.389L387.797 516.204L423.391 502.898L423.194 503.28C422.126 499.608 421.042 495.912 419.941 492.191L400.524 425.735C399.292 416.445 397.986 407.34 396.828 398.839V398.913L361.579 308.974L361.678 309.085L331.37 290.863H331.554L302.404 309.935L294.642 314.937L292.646 316.231L291.969 316.649Z" fill="#455A64"/>
<path d="M311.031 164.406C311.031 164.406 300.657 172.389 295.618 181.309C289.581 191.991 288.928 207.823 288.743 232.415C288.558 255.158 291.959 261.479 290.653 270.054C288.078 286.797 286.168 342.991 286.168 342.991C286.168 342.991 319.433 330.214 325.889 324.51L332.382 318.867L374.013 332.629L365.61 281.475L359.844 217.716L352.452 183.897L351.22 170.627L315.466 156.262L311.031 164.406Z" fill="#455A64"/>
<path d="M349.876 169.925C350.307 170.011 348.853 172.931 346.291 177.219L346.18 177.391L345.983 177.317C342.373 175.913 337.593 174.151 332.369 172.241C326.479 170.097 321.157 168.101 317.35 166.549C315.44 165.773 313.913 165.12 312.865 164.639C312.309 164.424 311.773 164.16 311.264 163.851C311.848 163.981 312.418 164.171 312.964 164.418L317.51 166.13L332.59 171.637C337.814 173.547 342.582 175.334 346.143 176.861L345.847 176.96C348.533 172.759 350.122 169.987 349.876 169.925Z" fill="#263238"/>
<path d="M392.902 143.362C392.902 143.362 390.265 139.259 387.777 135.477C385.288 131.695 381.518 129.834 380.914 127.863C380.311 125.892 376.996 117.107 376.467 114.926C376.006 112.814 375.791 110.656 375.826 108.495C375.826 108.495 378.549 107.337 379.855 111.23C380.643 113.571 383.157 121.518 383.699 121.912C384.241 122.306 384.931 121.727 384.931 121.727C383.812 118.752 382.845 115.721 382.035 112.647C381.912 111.206 382.417 101.645 382.417 101.645C383.093 101.509 383.795 101.619 384.396 101.956C384.997 102.293 385.458 102.834 385.695 103.481C386.988 105.945 387.038 112.105 387.038 112.105L388.996 118.98L388.307 112.179L389.292 99.6737C390.249 99.8102 391.141 100.238 391.847 100.9C392.552 101.561 393.037 102.423 393.235 103.37C394.06 106.746 392.964 111.452 393.518 112.45C394.073 113.448 394.676 119.485 394.676 119.485C394.676 119.485 395.354 104.824 396.919 104.405C398.483 103.986 399.765 105.538 399.543 108.495C399.321 111.452 399.259 117.711 400.073 120.471C400.886 123.23 409.227 134.023 408.549 138.754C408.134 141.613 407.875 144.492 407.773 147.379H393.481L392.902 143.362Z" fill="#FFBF9D"/>
<path d="M342.768 180.287C343.569 180.595 377.709 189.046 377.709 189.046C377.709 189.046 385.335 176.726 386.457 173.153C387.578 169.58 393.578 145.777 393.578 145.777L408.005 144.422C408.005 144.422 404.309 205.888 399.085 209.203C393.861 212.517 385.532 214.192 384.99 214.008C384.448 213.823 348.091 216.349 328.932 201.256C309.774 186.163 342.768 180.287 342.768 180.287Z" fill="#FFBF9D"/>
<g opacity="0.3">
<path opacity="0.3" d="M318.297 212.825C321.962 216.972 326.85 219.846 332.256 221.03C341.312 223.026 360.594 226.562 360.594 226.562L359.657 217.1L317.768 212.615" fill="black"/>
</g>
<path d="M303.098 199.814C306.202 206.369 313.102 213.367 328.268 214.956C358.293 218.061 381.025 219.712 390.844 218.234C400.663 216.755 404.569 195.97 405.629 195.33C408.684 193.408 408.487 186.804 405.85 184.833C398.36 179.227 383.341 174.976 382.331 175.432C376.355 178.401 378.302 185.35 378.302 185.35L340.232 176.948C335.846 175.124 331.272 173.793 326.593 172.98" fill="#455A64"/>
<path d="M326.592 172.98C326.592 172.98 326.913 172.98 327.529 173.104C328.145 173.227 329.069 173.375 330.252 173.633C333.685 174.412 337.048 175.476 340.305 176.812L378.351 185.091L378.03 185.436C377.467 183.253 377.64 180.945 378.523 178.87C379.01 177.807 379.745 176.878 380.667 176.159C381.134 175.795 381.633 175.473 382.158 175.198C382.338 175.145 382.524 175.115 382.712 175.112H383.168C383.476 175.112 383.747 175.21 384.043 175.26C388.724 176.367 393.291 177.914 397.682 179.88C399.995 180.888 402.232 182.066 404.372 183.404C404.901 183.749 405.431 184.13 405.961 184.5C406.509 184.916 406.955 185.451 407.267 186.065C407.868 187.275 408.18 188.607 408.179 189.958C408.21 191.325 407.905 192.679 407.292 193.901C406.951 194.531 406.471 195.075 405.887 195.49C405.739 195.564 405.641 195.884 405.517 196.18L405.197 197.104C404.384 199.568 403.571 202.205 402.585 204.743C401.294 208.382 399.404 211.78 396.992 214.796C396.117 215.942 395.002 216.883 393.725 217.551C392.448 218.22 391.039 218.6 389.599 218.665C388.675 218.8 387.751 218.825 386.84 218.899C383.143 219.121 379.595 219.071 376.084 218.973C372.572 218.874 369.135 218.689 365.796 218.48C352.404 217.618 340.391 216.398 330.313 215.351C327.906 215.14 325.512 214.794 323.143 214.316C321.04 213.866 318.98 213.239 316.982 212.443C313.747 211.186 310.781 209.321 308.247 206.948C306.665 205.434 305.305 203.704 304.206 201.81C303.813 201.16 303.471 200.481 303.184 199.777C303.184 199.777 303.529 200.48 304.317 201.749C305.455 203.595 306.835 205.282 308.42 206.763C310.951 209.084 313.904 210.899 317.118 212.11C319.118 212.882 321.179 213.488 323.278 213.921C325.641 214.374 328.026 214.699 330.424 214.895C340.502 215.893 352.515 217.063 365.882 217.901C369.234 218.098 372.659 218.27 376.158 218.357C379.657 218.443 383.242 218.492 386.864 218.283C387.764 218.197 388.688 218.172 389.587 218.036C390.485 217.989 391.372 217.819 392.224 217.531C393.926 216.875 395.429 215.788 396.585 214.377C398.945 211.42 400.794 208.088 402.055 204.521C403.041 202.057 403.842 199.457 404.655 196.919L405 195.958C405 195.81 405.123 195.65 405.197 195.478C405.242 195.383 405.296 195.292 405.357 195.207C405.404 195.147 405.458 195.093 405.517 195.046L405.604 194.972C406.115 194.618 406.537 194.15 406.836 193.605C407.411 192.46 407.691 191.189 407.649 189.909C407.652 188.662 407.37 187.432 406.823 186.311C406.554 185.782 406.171 185.319 405.702 184.956C405.172 184.599 404.667 184.217 404.138 183.884C402.028 182.556 399.82 181.39 397.534 180.397C393.192 178.44 388.675 176.897 384.043 175.79C383.759 175.79 383.476 175.666 383.205 175.642H382.798H382.527C382.042 175.901 381.58 176.202 381.148 176.541C380.289 177.188 379.6 178.034 379.139 179.005C378.323 180.954 378.155 183.114 378.659 185.165L378.77 185.597L378.338 185.498L340.354 176.997C337.127 175.639 333.799 174.535 330.4 173.695C329.167 173.412 328.317 173.215 327.701 173.091C327.085 172.968 326.592 172.98 326.592 172.98Z" fill="#263238"/>
<path d="M390.84 197.239C389.965 197.022 389.132 196.66 388.376 196.168C386.487 195.114 384.747 193.813 383.202 192.299C381.649 190.791 380.291 189.094 379.161 187.248C378.646 186.491 378.252 185.66 377.99 184.783C379.679 187.272 381.57 189.617 383.645 191.794C385.876 193.82 388.284 195.643 390.84 197.239Z" fill="#263238"/>
<path d="M122.799 298.711C122.799 298.711 130.437 299.117 135.119 302.087C139.801 305.056 147.44 309.639 150.581 315.356C152.023 317.98 147.92 318.534 145.899 317.007C143.879 315.479 140.762 312.621 139.222 312.263L137.682 311.918C139.086 315.097 140.653 318.202 142.376 321.22C143.965 323.684 145.345 327.775 140.577 327.972C140.577 327.972 137.349 332.161 134.096 329.056C134.096 329.056 131.558 332.851 127.468 327.59C127.468 327.59 125.09 330.596 124.092 329.45C123.094 328.305 119.842 326.469 118.893 322.699C117.477 318.307 115.832 313.994 113.965 309.775L122.799 298.711Z" fill="#FFBF9D"/>
<path d="M57.7948 198.262C53.8793 199.523 50.4998 202.061 48.1972 205.469C45.2649 209.979 44.3655 217.79 45.2033 223.605C46.9775 235.864 52.5956 256.55 55.7619 269.832C56.8461 274.415 59.0761 282.62 65.6183 286.969L112.301 314.961L124.781 296.481L82.2263 261.799L73.8114 214.266L57.7948 198.262Z" fill="#455A64"/>
<path d="M49.7246 244.981C49.7886 245.137 49.8381 245.297 49.8724 245.462L50.2667 246.903C50.5994 248.209 51.0675 250.082 51.6836 252.485C52.9156 257.413 54.6651 264.411 56.8458 273.121C58.1119 277.866 60.7937 282.112 64.5338 285.294C66.6703 287.004 68.9545 288.522 71.3593 289.828L78.8625 294.362L112.485 314.666L112.054 314.765L116.551 308.099L124.534 296.235L124.596 296.666L82.4231 261.934H82.3492V261.848C79.5648 250.131 77.5442 240.534 76.2629 233.856C75.6345 230.517 75.191 227.918 74.9076 226.143C74.7844 225.281 74.6859 224.603 74.6119 224.123C74.538 223.642 74.5257 223.433 74.5257 223.433C74.5926 223.655 74.6461 223.882 74.6859 224.11C74.7721 224.591 74.8953 225.256 75.0432 226.119C75.3758 227.881 75.8563 230.48 76.5463 233.807C77.8892 240.46 79.9837 250.033 82.8297 261.737L82.7435 261.602L124.99 296.173L125.212 296.358L125.052 296.592L117.068 308.456L112.571 315.122L112.411 315.368L112.14 315.22L78.5668 294.855L71.076 290.308C68.6552 288.989 66.3547 287.459 64.2012 285.737C60.3963 282.479 57.6828 278.131 56.4269 273.281C54.3201 264.546 52.6322 257.487 51.4988 252.595C50.9443 250.131 50.5008 248.296 50.1928 246.99L49.8355 245.474C49.787 245.313 49.75 245.148 49.7246 244.981Z" fill="#263238"/>
<path d="M50.4883 204.829C50.7781 204.638 51.0993 204.501 51.437 204.422C52.3312 204.146 53.2457 203.94 54.1721 203.806C57.2623 203.33 60.4245 203.758 63.2769 205.038C66.0339 206.476 68.3756 208.597 70.0778 211.198C70.594 211.985 71.008 212.833 71.3099 213.724C71.4422 214.041 71.5172 214.379 71.5316 214.722C70.9992 213.591 70.3857 212.5 69.6959 211.457C67.9422 209.029 65.6476 207.042 62.9936 205.654C60.2409 204.434 57.2138 203.967 54.2214 204.299C51.9175 204.484 50.5252 204.94 50.4883 204.829Z" fill="#263238"/>
</svg>
