<svg width="107" height="90" viewBox="0 0 107 90" fill="none" xmlns="http://www.w3.org/2000/svg">
<path d="M76.6609 44.0372H30.3392V48.6106H76.6609V44.0372Z" fill="white"/>
<path d="M13.4728 74.425V64.2486L9.79195 71.6589H7.62676L3.94594 64.2486V74.425H0V57.3466H4.28177L8.70935 66.2724L13.159 57.3466H17.4187V74.425H13.4728Z" fill="white"/>
<path d="M24.9968 57.3466H29.2565L35.1246 74.425H31.0814L29.9237 70.5984H24.2986L23.1409 74.425H19.0978L24.9968 57.3466ZM29.1018 67.8809L27.1134 61.3146L25.125 67.8809H29.1018Z" fill="white"/>
<path d="M36.8038 74.425V57.3466H44.5012C45.301 57.3466 46.0434 57.51 46.7283 57.8415C47.4088 58.1684 48.0009 58.6103 48.4958 59.1627C48.9907 59.715 49.3795 60.3381 49.6623 61.0274C49.9407 61.7167 50.0821 62.4149 50.0821 63.1219C50.0821 63.8289 49.9672 64.4961 49.7463 65.1324C49.5209 65.7643 49.1984 66.3343 48.783 66.838C48.3676 67.3418 47.8683 67.7571 47.2939 68.0797L51.0454 74.4294H46.6929L43.4231 68.9193H40.7541V74.4294H36.8038V74.425ZM40.7497 65.4771H44.3598C44.6824 65.4771 44.9652 65.3754 45.2127 65.1766C45.4601 64.9777 45.6634 64.6994 45.8269 64.3459C45.9859 63.9924 46.0699 63.5858 46.0699 63.1174C46.0699 62.6535 45.9771 62.2469 45.7915 61.9023C45.6059 61.5576 45.3761 61.2881 45.1066 61.0981C44.8326 60.9081 44.5454 60.8109 44.2405 60.8109H40.7541V65.4771H40.7497Z" fill="white"/>
<path d="M52.9233 74.425V57.3466H56.8693V74.425H52.9233Z" fill="white"/>
<path d="M64.0851 64.6596V74.425H60.1392V57.3466H63.2676L71.1816 67.4036V57.3466H75.1276V74.425H71.9063L64.0851 64.6596Z" fill="white"/>
<path d="M90.4032 70.9607V74.425H78.3975V57.3466H90.1867V60.8109H82.3434V64.1293H89.0776V67.3285H82.3434V70.9607H90.4032Z" fill="#FDB913"/>
<path d="M95.3124 57.3466L99.0153 63.2412L102.718 57.3466H107L101.348 66.0073L106.81 74.4294H102.528L99.0153 68.7779L95.5024 74.4294H91.1985L96.6601 66.0073L91.0085 57.3466H95.3124Z" fill="#FDB913"/>
<path d="M76.6653 36.6003V41.1737H74.0892C70.4923 41.1737 68.61 39.0704 67.2401 37.5283C65.9587 36.101 65.2826 35.4073 63.7979 35.4073C62.3132 35.4073 61.6328 36.0966 60.3557 37.5283C58.9771 39.066 57.0991 41.1737 53.5023 41.1737C49.9054 41.1737 48.023 39.0704 46.6532 37.5283C45.3718 36.101 44.6957 35.4073 43.211 35.4073C41.7263 35.4073 41.0458 36.0966 39.7688 37.5283C38.452 39.0041 36.6757 40.9881 33.3704 41.1561C33.2246 41.1649 33.07 41.1693 32.9109 41.1693H30.3392V36.6003H32.9109C34.3956 36.6003 35.0761 35.9154 36.3531 34.4793C37.7317 32.946 39.6097 30.8339 43.2066 30.8339C46.799 30.8339 48.6858 32.9416 50.0556 34.4793C51.3326 35.911 52.0131 36.6003 53.4978 36.6003C54.9825 36.6003 55.663 35.9154 56.94 34.4793C58.3187 32.946 60.1967 30.8339 63.7935 30.8339C67.386 30.8339 69.2728 32.9416 70.6426 34.4793C71.9196 35.911 72.6001 36.6003 74.0848 36.6003H76.6653Z" fill="white"/>
<path d="M33.3704 41.1561V41.1693H32.9108C33.0699 41.1737 33.2246 41.1693 33.3704 41.1561Z" fill="white"/>
<path d="M30.8473 84.8135C30.8473 84.3141 30.9312 83.8281 31.1036 83.3509C31.2759 82.8736 31.5278 82.4362 31.8592 82.0429C32.1906 81.6496 32.5971 81.3359 33.0832 81.1017C33.5692 80.8675 34.1127 80.7526 34.7225 80.7526C35.4472 80.7526 36.0703 80.9205 36.5917 81.2519C37.1131 81.5834 37.4975 82.012 37.7494 82.529L36.9363 83.0592C36.7773 82.7145 36.5696 82.4406 36.3221 82.2373C36.0747 82.0341 35.8051 81.8927 35.5179 81.8087C35.2307 81.7247 34.9479 81.6806 34.6739 81.6806C34.2232 81.6806 33.8211 81.7734 33.4764 81.9545C33.1274 82.1401 32.8357 82.3831 32.5971 82.688C32.3585 82.9929 32.1818 83.3376 32.0624 83.7132C31.9431 84.0932 31.8857 84.4732 31.8857 84.8532C31.8857 85.273 31.9564 85.6795 32.0978 86.0684C32.2392 86.4572 32.438 86.8019 32.6899 87.1024C32.9418 87.4028 33.2423 87.637 33.5869 87.8138C33.9316 87.9905 34.3072 88.0789 34.7093 88.0789C34.9921 88.0789 35.2837 88.0303 35.5798 87.9287C35.8802 87.827 36.1586 87.6724 36.4193 87.4647C36.68 87.2526 36.8877 86.9831 37.038 86.6428L37.8996 87.1112C37.7317 87.5177 37.471 87.8624 37.1175 88.1452C36.764 88.428 36.3751 88.6445 35.9421 88.7859C35.5091 88.9317 35.0849 89.0024 34.6651 89.0024C34.1083 89.0024 33.5958 88.8831 33.1274 88.6401C32.659 88.4015 32.2569 88.0789 31.9166 87.6768C31.5764 87.2747 31.3113 86.824 31.1257 86.3247C30.9401 85.8342 30.8473 85.326 30.8473 84.8135Z" fill="white"/>
<path d="M43.1712 80.8101H44.0417L47.369 88.9538H46.2687L45.3541 86.5677H41.85L40.9309 88.9538H39.8306L43.1712 80.8101ZM45.0492 85.7635L43.6087 81.9987L42.1593 85.7635H45.0492Z" fill="white"/>
<path d="M50.0645 88.9538V80.8101H53.5508C53.9088 80.8101 54.2402 80.8852 54.5362 81.0354C54.8367 81.1856 55.093 81.3845 55.3183 81.6319C55.5393 81.8794 55.7116 82.1578 55.8353 82.4671C55.9591 82.7764 56.0209 83.0946 56.0209 83.4127C56.0209 83.7883 55.9502 84.1418 55.8088 84.4776C55.6674 84.8134 55.4686 85.1007 55.2123 85.3393C54.956 85.5779 54.6555 85.7414 54.3109 85.8342L56.286 88.9538H55.1151L53.2548 86.0286H51.0984V88.9538H50.0645ZM51.0984 85.1095H53.5641C53.8469 85.1095 54.0944 85.03 54.302 84.8753C54.5141 84.7206 54.6776 84.5086 54.7969 84.2478C54.9162 83.9871 54.9737 83.7088 54.9737 83.4083C54.9737 83.1034 54.903 82.8206 54.766 82.5643C54.629 82.308 54.4479 82.1048 54.2269 81.9501C54.006 81.7954 53.7585 81.7203 53.4934 81.7203H51.094V85.1095H51.0984Z" fill="white"/>
<path d="M62.4811 89.0113C61.9464 89.0113 61.4471 88.8964 60.9831 88.6622C60.5192 88.428 60.1171 88.1143 59.7724 87.721C59.4277 87.3277 59.1626 86.8814 58.9682 86.3909C58.7782 85.896 58.681 85.3879 58.681 84.8576C58.681 84.3053 58.7782 83.7839 58.9682 83.2934C59.1582 82.7985 59.4233 82.361 59.7636 81.981C60.1038 81.5966 60.5059 81.2961 60.9699 81.0796C61.4338 80.8631 61.9376 80.7526 62.4767 80.7526C63.2632 80.7526 63.9128 80.9161 64.4253 81.2475C64.9379 81.5745 65.3223 82.0031 65.5831 82.5334L64.7921 83.0857C64.5535 82.6129 64.2309 82.2594 63.8156 82.0296C63.4046 81.7999 62.9495 81.685 62.4502 81.685C62.0392 81.685 61.6636 81.7734 61.3278 81.9501C60.992 82.1269 60.7048 82.3655 60.4617 82.6659C60.2187 82.9664 60.0375 83.3111 59.9094 83.6911C59.7812 84.0755 59.7194 84.4732 59.7194 84.8842C59.7194 85.3216 59.7901 85.7326 59.9315 86.117C60.0729 86.5014 60.2717 86.8461 60.5324 87.1377C60.7931 87.4338 61.0936 87.6635 61.4383 87.8315C61.7829 87.9994 62.1541 88.0833 62.5518 88.0833C63.0202 88.0833 63.4621 87.964 63.8818 87.7254C64.3016 87.4868 64.6993 87.1245 65.0749 86.634V87.6989C64.3502 88.5782 63.4797 89.0113 62.4811 89.0113ZM64.9556 85.6751H63.2013V84.893H65.8305V88.9538H64.9556V85.6751Z" fill="white"/>
<path d="M72.3128 89.0113C71.7384 89.0113 71.217 88.8964 70.753 88.6666C70.2846 88.4368 69.8825 88.1275 69.5423 87.7298C69.202 87.3365 68.9413 86.8903 68.7557 86.3998C68.5701 85.9093 68.4818 85.4011 68.4818 84.8797C68.4818 84.3362 68.579 83.8192 68.7734 83.3243C68.9678 82.8294 69.2418 82.392 69.5864 82.0031C69.9355 81.6187 70.342 81.3094 70.8104 81.084C71.2788 80.8587 71.787 80.7438 72.3349 80.7438C72.9093 80.7438 73.4307 80.8631 73.8947 81.1017C74.3631 81.3403 74.7608 81.654 75.101 82.0517C75.4369 82.4494 75.6976 82.8913 75.8832 83.3818C76.0643 83.8722 76.1571 84.3716 76.1571 84.8841C76.1571 85.4277 76.0599 85.9446 75.8699 86.4395C75.6799 86.9344 75.4103 87.3719 75.0613 87.7607C74.7122 88.1452 74.3057 88.4501 73.8373 88.671C73.3689 88.9008 72.8607 89.0113 72.3128 89.0113ZM69.5246 84.8797C69.5246 85.2951 69.5909 85.6928 69.7234 86.0772C69.856 86.4616 70.046 86.8063 70.289 87.1024C70.5321 87.4028 70.8281 87.637 71.1728 87.8138C71.5174 87.9905 71.8974 88.0789 72.3216 88.0789C72.7591 88.0789 73.148 87.9861 73.4926 87.8049C73.8373 87.6194 74.1289 87.3763 74.3719 87.0714C74.6106 86.7665 74.7961 86.4219 74.9243 86.0374C75.0524 85.6574 75.1143 85.2686 75.1143 84.8797C75.1143 84.4688 75.048 84.0711 74.9154 83.6867C74.7829 83.3067 74.5885 82.962 74.341 82.6615C74.0936 82.361 73.7975 82.1224 73.4573 81.9501C73.117 81.7778 72.7414 81.6938 72.3261 81.6938C71.8886 81.6938 71.4998 81.7822 71.1551 81.9634C70.8104 82.1445 70.5188 82.3876 70.2758 82.6924C70.0327 82.9973 69.8471 83.342 69.719 83.7176C69.5864 84.0976 69.5246 84.4865 69.5246 84.8797Z" fill="white"/>
<path d="M76.6654 24.7317V6.68557C76.6654 2.99591 73.6694 0 69.9798 0H48.2395H40.2107H33.5295V0.00441875H20.1628C18.9963 0.00441875 18.0418 0.950031 18.0418 2.11658C18.0418 3.28313 18.9963 4.22874 20.1628 4.22874H23.9055C25.072 4.22874 26.0177 5.17435 26.0177 6.3409C26.0177 7.51629 25.072 8.4619 23.9055 8.4619H13.4684C12.3019 8.4619 11.3474 9.40752 11.3474 10.5741C11.3474 11.7406 12.3019 12.6862 13.4684 12.6862H29.7648C30.9313 12.6862 31.8769 13.6318 31.8769 14.8072C31.8769 15.9738 30.9313 16.9194 29.7648 16.9194H23.985C22.8185 16.9194 21.864 17.865 21.864 19.0315C21.864 20.1981 22.8185 21.1437 23.985 21.1437H27.4847C28.6512 21.1437 29.5968 22.0893 29.5968 23.2647C29.5968 24.4313 28.6512 25.3769 27.4847 25.3769H19.553C18.3865 25.3769 17.4409 26.3225 17.4409 27.489C17.4409 28.6556 18.3865 29.6012 19.553 29.6012H33.5295H34.8331H35.9289C37.1131 29.5968 37.8378 28.6114 39.0883 26.5037C40.4007 24.2987 42.0356 22.5047 45.5043 22.5047C48.9775 22.5047 50.6124 24.2987 51.9248 26.5037C53.1797 28.6158 53.9 29.6056 55.093 29.6056C56.2817 29.6056 57.0063 28.6158 58.2613 26.5037C59.5736 24.2987 61.2042 22.5047 64.6773 22.5047C68.1504 22.5047 69.7854 24.2987 71.0977 26.5037C72.3527 28.6158 73.0729 29.6056 74.266 29.6056H76.6654V27.7453V24.7317Z" fill="#FDB913"/>
<path d="M9.28385 4.22884H14.3875C15.5541 4.22884 16.4997 3.28323 16.4997 2.11668C16.4997 0.950129 15.5541 0.0045166 14.3875 0.0045166H9.28385C8.1173 0.0045166 7.17169 0.950129 7.17169 2.11668C7.17169 3.28323 8.1173 4.22884 9.28385 4.22884Z" fill="#FDB913"/>
<path d="M2.36853 4.22835H3.64996C4.81651 4.22835 5.76212 3.28274 5.76212 2.11619C5.76212 0.94964 4.81651 0.00402832 3.64996 0.00402832H2.36853C1.20198 0.00402832 0.256363 0.94964 0.256363 2.11619C0.251944 3.28274 1.20198 4.22835 2.36853 4.22835Z" fill="#FDB913"/>
<path d="M13.6585 25.3416H11.4226C10.256 25.3416 9.31042 26.2872 9.31042 27.4538C9.31042 28.6203 10.256 29.5659 11.4226 29.5659H13.6585C14.825 29.5659 15.7706 28.6203 15.7706 27.4538C15.7706 26.2916 14.8206 25.3416 13.6585 25.3416Z" fill="#FDB913"/>
<path d="M12.7615 21.135H17.8651C19.0317 21.135 19.9773 20.1894 19.9773 19.0228C19.9773 17.8563 19.0317 16.9106 17.8651 16.9106H12.7615C11.5949 16.9106 10.6493 17.8563 10.6493 19.0228C10.6493 20.1894 11.5949 21.135 12.7615 21.135Z" fill="#FDB913"/>
<path d="M7.47223 16.9106H2.36857C1.20202 16.9106 0.256409 17.8563 0.256409 19.0228C0.256409 20.1894 1.20202 21.135 2.36857 21.135H7.47223C8.63878 21.135 9.58439 20.1894 9.58439 19.0228C9.58439 17.8563 8.63878 16.9106 7.47223 16.9106Z" fill="#FDB913"/>
</svg>
