<svg width="54" height="50" viewBox="0 0 54 50" fill="none" xmlns="http://www.w3.org/2000/svg">
<path d="M18.0718 49.5456C20.2899 49.5456 22.088 47.714 22.088 45.4547C22.088 43.1953 20.2899 41.3638 18.0718 41.3638C15.8538 41.3638 14.0557 43.1953 14.0557 45.4547C14.0557 47.714 15.8538 49.5456 18.0718 49.5456Z" fill="#FFAB21"/>
<path d="M46.1861 49.5456C48.4041 49.5456 50.2022 47.714 50.2022 45.4547C50.2022 43.1953 48.4041 41.3638 46.1861 41.3638C43.968 41.3638 42.1699 43.1953 42.1699 45.4547C42.1699 47.714 43.968 49.5456 46.1861 49.5456Z" fill="#FFAB21"/>
<path d="M53.3145 7.71339C53.0324 7.36189 52.6769 7.07879 52.274 6.88464C51.8711 6.69049 51.4308 6.59017 50.9851 6.59095H12.7877L12.0183 2.14465C11.9363 1.67103 11.6931 1.24201 11.3313 0.932929C10.9696 0.623851 10.5125 0.454489 10.0404 0.45459H2.00808C1.4755 0.45459 0.96474 0.670093 0.588152 1.05369C0.211565 1.43729 0 1.95756 0 2.50004C0 3.04253 0.211565 3.5628 0.588152 3.9464C0.96474 4.32999 1.4755 4.5455 2.00808 4.5455H8.35612L14.0867 37.6281C14.1687 38.1018 14.4119 38.5308 14.7737 38.8399C15.1354 39.1489 15.5925 39.3183 16.0646 39.3182H48.1939C48.7265 39.3182 49.2372 39.1027 49.6138 38.7191C49.9904 38.3355 50.202 37.8152 50.202 37.2727C50.202 36.7303 49.9904 36.21 49.6138 35.8264C49.2372 35.4428 48.7265 35.2273 48.1939 35.2273H17.7489L17.0411 31.1364H47.3706C48.067 31.1355 48.7417 30.8895 49.2805 30.4402C49.8193 29.9908 50.1892 29.3656 50.3275 28.6703L53.942 10.2613C54.0291 9.81574 54.018 9.35607 53.9095 8.91546C53.8009 8.47484 53.5977 8.06427 53.3145 7.71339Z" fill="#FFAB21"/>
</svg>
