<svg width="118" height="116" viewBox="0 0 118 116" fill="none" xmlns="http://www.w3.org/2000/svg">
<path d="M69.8817 40.656V61.0756H60.9707V40.3014L69.8817 40.656Z" fill="#C7C7C7"/>
<path d="M112.277 54.1089L108.638 53.537C109.636 47.3625 108.391 41.0421 105.116 35.6673C101.841 30.2924 96.7429 26.2005 90.7016 24.0982C84.6602 21.9958 78.055 22.0151 72.0267 24.1527C65.9984 26.2902 60.9254 30.4118 57.6838 35.8057L54.4199 34.1355C58.0702 27.9889 63.8126 23.2805 70.6518 20.8264C77.4911 18.3722 84.9961 18.327 91.8659 20.6986C98.7358 23.0702 104.537 27.7092 108.265 33.8113C111.993 39.9135 113.413 47.0942 112.277 54.1089Z" fill="#37474F"/>
<path d="M104.375 50.9288L106.066 49.6361L110.057 54.8525L115.094 50.6771L116.327 52.313L109.588 57.884L104.375 50.9288Z" fill="#37474F"/>
<path d="M50.344 45.2548L53.9836 45.8267C52.9728 52.0047 54.2099 58.3326 57.4808 63.7159C60.7518 69.0992 65.8508 73.1993 71.896 75.3071C77.9413 77.4148 84.5524 77.3976 90.586 75.2584C96.6195 73.1192 101.696 68.9926 104.937 63.5923L108.201 65.2625C104.551 71.4155 98.8054 76.129 91.9609 78.5848C85.1164 81.0407 77.6054 81.0839 70.7316 78.7068C63.8579 76.3298 58.0553 71.6827 54.3312 65.572C50.607 59.4614 49.1963 52.2731 50.344 45.2548Z" fill="#37474F"/>
<path d="M58.2468 48.4235L56.5561 49.7162L52.5643 44.4997L47.5394 48.6752L46.2949 47.0393L53.034 41.4683L58.2468 48.4235Z" fill="#37474F"/>
<path d="M69.8935 30.349V61.0756H60.9707V30.349C60.9707 18.6579 51.8601 9.15162 40.6597 9.15162C29.4592 9.15162 20.3368 18.6579 20.3368 30.349V61.0756H11.4258V30.349C11.4258 13.613 24.54 0 40.6597 0C56.7794 0 69.8935 13.613 69.8935 30.349Z" fill="#DBDBDB"/>
<path d="M11.4258 38.3339L20.3368 38.6885V61.0756H11.4258V38.3339Z" fill="#C7C7C7"/>
<path d="M81.3147 49.7047H0V115.459H81.3147V49.7047Z" fill="#FFAB21"/>
<path opacity="0.1" d="M40.6574 49.7047H0V115.459H40.6574V49.7047Z" fill="black"/>
<path d="M44.4756 82.1473L47.8803 97.8881H33.416L36.8208 82.1473C35.4865 81.3381 34.4591 80.1276 33.894 78.6988C33.3288 77.2699 33.2567 75.7007 33.6885 74.2284C34.1204 72.756 35.0326 71.4608 36.2873 70.5388C37.542 69.6167 39.0708 69.1179 40.6423 69.1179C42.2138 69.1179 43.7426 69.6167 44.9973 70.5388C46.252 71.4608 47.1642 72.756 47.5961 74.2284C48.0279 75.7007 47.9558 77.2699 47.3906 78.6988C46.8255 80.1276 45.7981 81.3381 44.4638 82.1473H44.4756Z" fill="#263238"/>
<path d="M107.661 54.2118L107.802 53.3996C108.762 47.4166 107.549 41.2947 104.372 36.0901C101.195 30.8855 96.2528 26.9247 90.3987 24.8909C84.5447 22.8572 78.1457 22.8781 72.3058 24.95C66.4658 27.022 61.5513 31.0151 58.41 36.2403L57.999 36.9152L53.2441 34.4786L53.6902 33.735C57.4403 27.4111 63.3458 22.5673 70.3805 20.0452C77.4152 17.5231 85.1345 17.4823 92.1969 19.9297C99.2593 22.3771 105.219 27.1581 109.039 33.442C112.859 39.7258 114.299 47.1152 113.109 54.3262L112.968 55.1384L107.661 54.2118ZM87.4207 22.2726C94.3753 23.7354 100.512 27.6902 104.615 33.3536C108.719 39.0169 110.489 45.9755 109.575 52.8505L111.547 53.1593C112.461 46.443 110.981 39.6246 107.354 33.844C103.728 28.0634 98.1745 23.6709 91.6231 21.4007C85.0718 19.1305 77.9192 19.1202 71.361 21.3715C64.8027 23.6228 59.2364 27.9992 55.5922 33.7694L57.3533 34.6731C60.441 29.8374 64.9876 26.0502 70.3703 23.8303C75.7529 21.6104 81.7084 21.0663 87.4207 22.2726Z" fill="#37474F"/>
<path d="M109.447 59.0851L103.213 50.78L106.218 48.4921L110.198 53.6742L115.223 49.5102L117.478 52.4616L109.447 59.0851ZM105.537 51.0774L109.741 56.6713L115.188 52.1642L114.953 51.8667L109.917 56.0307L105.901 50.7914L105.537 51.0774Z" fill="#37474F"/>
<path d="M74.4135 80.5799C66.3942 78.8971 59.3428 74.2814 54.7122 67.6838C50.0816 61.0862 48.2245 53.0094 49.5236 45.1174L49.6527 44.3052L54.9594 45.1288L54.8185 45.941C53.8342 51.9311 55.0304 58.0681 58.2 63.2895C61.3697 68.5109 66.3133 72.4881 72.175 74.5327C78.0368 76.5773 84.4477 76.5605 90.2981 74.4852C96.1485 72.41 101.07 68.4069 104.211 63.169L104.622 62.4826L109.377 64.9192L108.931 65.6628C105.548 71.3981 100.38 75.9353 94.1737 78.6172C87.9679 81.2992 81.047 81.9866 74.4135 80.5799ZM51.0616 46.2613C50.1877 52.9664 51.6958 59.7609 55.3349 65.515C58.9741 71.2691 64.5251 75.6361 71.0648 77.8898C77.6046 80.1435 84.739 80.1481 91.2819 77.9029C97.8247 75.6576 103.382 71.2978 107.029 65.5484L105.256 64.6447C101.829 69.9983 96.6259 74.0489 90.5106 76.124C84.3952 78.1991 77.7355 78.1738 71.6369 76.0524C65.5384 73.9309 60.3679 69.8409 56.984 64.4614C53.6001 59.0819 52.2063 52.7365 53.034 46.4787L51.0616 46.2613Z" fill="#37474F"/>
<path d="M47.3967 49.865L45.1543 46.9136L53.1848 40.2672L59.419 48.5723L56.4134 50.8602L52.4451 45.6781L47.3967 49.865ZM47.3967 47.1767L47.6315 47.4741L52.6565 43.3101L56.6717 48.5494L57.0357 48.2634L52.8795 42.6695L47.3967 47.1767Z" fill="#37474F"/>
</svg>
