<svg width="93" height="93" viewBox="0 0 93 93" fill="none" xmlns="http://www.w3.org/2000/svg">
<path d="M64.1721 63.5913C63.8991 64.4119 63.4866 65.1792 62.9527 65.8595C59.628 69.9308 53.3117 72.3333 46.5357 72.3333C40.0334 72.3333 33.991 70.1272 30.5732 66.3865C30.2212 66.0374 29.8997 65.6589 29.6122 65.255C29.1723 64.5771 28.8484 63.8306 28.6538 63.0463C28.4221 62.1872 28.3632 61.2907 28.4807 60.4087C28.6254 59.4606 29.1007 58.1973 30.3872 57.4275C31.6272 56.6783 33.0274 56.7584 34.2002 57.0917C40.2814 58.6753 43.2419 59.3831 46.1843 59.396C49.1164 59.4089 52.1466 58.7295 58.3363 57.0865L58.3725 57.0762C59.7158 56.7403 61.2348 56.6654 62.5471 57.4327C63.968 58.2619 64.4588 59.6543 64.5621 60.7316C64.6603 61.7753 64.4433 62.7957 64.1721 63.5913Z" fill="#FFAB21"/>
<path d="M39.5301 44.1957C39.8659 43.2709 39.7651 42.142 39.4887 41.1138C39.156 39.9297 38.623 38.8114 37.9129 37.8071C36.412 35.6655 33.9242 33.6996 30.5633 33.555C27.0836 33.4103 24.4847 35.619 22.8831 37.9621C22.0693 39.1505 21.4648 40.437 21.0876 41.6201C20.7182 42.7723 20.5219 43.9503 20.6511 44.8932C20.6807 45.1082 20.7641 45.3122 20.8935 45.4865C21.0228 45.6607 21.194 45.7996 21.3912 45.8902C21.5884 45.9808 21.8053 46.0203 22.0218 46.005C22.2383 45.9897 22.4474 45.92 22.6299 45.8025C23.6632 45.1412 24.7456 44.2345 25.748 43.3975C26.2026 43.0151 26.6444 42.6483 27.0526 42.3254C28.5044 41.1784 29.6359 40.5248 30.5711 40.4783C31.4623 40.4344 32.4905 40.9433 33.7873 41.9146C34.2523 42.2608 34.7018 42.6302 35.1668 43.01H35.1694L35.6706 43.4207C36.3009 43.9296 36.9726 44.4515 37.6494 44.8596C37.8126 44.9581 37.9957 45.0192 38.1854 45.0385C38.375 45.0579 38.5666 45.035 38.7464 44.9715C38.9262 44.9081 39.0897 44.8056 39.2252 44.6714C39.3607 44.5373 39.4648 44.3748 39.5301 44.1957Z" fill="#FFAB21"/>
<path d="M53.25 44.1957C52.9141 43.2709 53.0175 42.142 53.2939 41.1138C53.5832 40.0391 54.118 38.8844 54.8697 37.8071C56.368 35.6655 58.8584 33.6996 62.2193 33.555C65.6965 33.4103 68.2979 35.619 69.8995 37.9621C70.7107 39.1505 71.3152 40.437 71.695 41.6201C72.0618 42.7723 72.2581 43.9503 72.129 44.8932C72.0991 45.1078 72.0157 45.3114 71.8865 45.4853C71.7573 45.6592 71.5864 45.7979 71.3896 45.8884C71.1927 45.979 70.9763 46.0186 70.7602 46.0036C70.544 45.9886 70.3351 45.9194 70.1527 45.8025C69.1194 45.1412 68.0344 44.2345 67.0346 43.3975C66.5774 43.0151 66.1382 42.6483 65.73 42.3254C64.2756 41.1784 63.1467 40.5248 62.209 40.4783C61.3177 40.4344 60.2895 40.9433 58.9953 41.9146C58.5303 42.2608 58.0808 42.6302 57.6158 43.01H57.608C57.4453 43.1469 57.2774 43.2812 57.1069 43.4207C56.4765 43.9296 55.8075 44.4515 55.1306 44.8596C54.9673 44.9586 54.784 45.02 54.594 45.0396C54.4041 45.0592 54.2121 45.0365 54.032 44.973C53.8519 44.9095 53.6881 44.8068 53.5524 44.6724C53.4168 44.538 53.3126 44.3752 53.2474 44.1957H53.25Z" fill="#FFAB21"/>
<path fill-rule="evenodd" clip-rule="evenodd" d="M46.5 93C72.1809 93 93 72.1809 93 46.5C93 20.8191 72.1809 0 46.5 0C20.8191 0 0 20.8191 0 46.5C0 72.1809 20.8191 93 46.5 93ZM46.5 87.8333C69.3289 87.8333 87.8333 69.3289 87.8333 46.5C87.8333 23.6711 69.3289 5.16667 46.5 5.16667C23.6711 5.16667 5.16667 23.6711 5.16667 46.5C5.16667 69.3289 23.6711 87.8333 46.5 87.8333Z" fill="#FFAB21"/>
</svg>
